<svg version="1.1" xmlns="http://www.w3.org/2000/svg" viewBox="0 0 984 596" width="984" height="596">
  <!-- svg-source:excalidraw -->
  
  <defs>
    <style class="style-fonts">
      @font-face {
        font-family: "Virgil";
        src: url("https://excalidraw.com/Virgil.woff2");
      }
      @font-face {
        font-family: "Cascadia";
        src: url("https://excalidraw.com/Cascadia.woff2");
      }
      @font-face {
        font-family: "Assistant";
        src: url("https://excalidraw.com/Assistant-Regular.woff2");
      }
    </style>
    
  </defs>
  <rect x="0" y="0" width="984" height="596" fill="#ffffff"></rect><g stroke-linecap="round" transform="translate(10 59) rotate(0 205 64.5)"><path d="M32 0 C166.27 -3.18, 301.63 -2.03, 378 0 M32 0 C162.12 1.65, 292.06 0.97, 378 0 M378 0 C397.79 -2, 409.24 10.89, 410 32 M378 0 C397.82 0.44, 410.22 8.62, 410 32 M410 32 C408.34 57.49, 409.9 81.51, 410 97 M410 32 C409.55 46.96, 409.94 62.26, 410 97 M410 97 C411.48 119.79, 399.02 127.64, 378 129 M410 97 C411.21 120.03, 398.75 129.37, 378 129 M378 129 C289.32 132.42, 199.36 129.84, 32 129 M378 129 C252.83 128.92, 127.74 128.89, 32 129 M32 129 C9.63 129.18, 0.78 116.72, 0 97 M32 129 C10.77 129.58, -1.66 116.33, 0 97 M0 97 C-1.19 77.39, -0.94 59.3, 0 32 M0 97 C0.79 79.65, 0.23 64.89, 0 32 M0 32 C-1.89 8.91, 9.31 -1.27, 32 0 M0 32 C-1.61 8.55, 11.42 0.43, 32 0" stroke="#2f9e44" stroke-width="2" fill="none"></path></g><g stroke-linecap="round" transform="translate(29 91) rotate(0 78 24.5)"><path d="M105.76 0.97 C117.08 2.06, 129.49 6.15, 137.68 9.25 C145.86 12.34, 152.36 15.91, 154.85 19.56 C157.35 23.21, 155.78 27.57, 152.63 31.14 C149.49 34.72, 143.9 38.39, 135.97 41.01 C128.03 43.63, 116.37 45.69, 105.03 46.89 C93.69 48.08, 79.98 48.55, 67.93 48.17 C55.88 47.8, 42.54 46.86, 32.73 44.65 C22.92 42.45, 14.52 38.27, 9.07 34.93 C3.62 31.58, 0.15 28.39, 0.04 24.58 C-0.06 20.78, 2.8 15.42, 8.47 12.09 C14.14 8.76, 23.89 6.66, 34.09 4.59 C44.29 2.53, 56.54 0.07, 69.67 -0.32 C82.8 -0.71, 104.61 1.59, 112.86 2.26 C121.11 2.94, 119.66 3.29, 119.15 3.74 M115.49 1.38 C126.19 2.46, 134.35 6.37, 140.84 9.55 C147.34 12.73, 153.01 16.46, 154.47 20.48 C155.92 24.5, 153.64 29.78, 149.57 33.66 C145.5 37.54, 139 41.09, 130.05 43.76 C121.1 46.44, 107.46 48.9, 95.85 49.69 C84.23 50.48, 72.12 49.42, 60.37 48.5 C48.62 47.57, 34.34 46.9, 25.35 44.14 C16.36 41.37, 10.32 35.66, 6.42 31.89 C2.52 28.12, 0.77 25.3, 1.95 21.52 C3.14 17.74, 6.64 12.23, 13.51 9.21 C20.39 6.18, 32.63 4.97, 43.18 3.35 C53.72 1.73, 65.15 -0.5, 76.79 -0.53 C88.42 -0.55, 106.95 2.41, 112.98 3.21 C119.01 4.02, 113.37 3.96, 112.97 4.3" stroke="#1e1e1e" stroke-width="2" fill="none"></path></g><g transform="translate(59.9706710674493 103.67588386092956) rotate(0 46.875 12)"><text x="46.875" y="19.3125" font-family="Cascadia, Segoe UI Emoji" font-size="20px" fill="#1e1e1e" text-anchor="middle" style="white-space: pre;" direction="ltr" dominant-baseline="alphabetic">Thread A</text></g><g stroke-linecap="round" transform="translate(225 94.5) rotate(0 78 24.5)"><path d="M77.41 -0.15 C88.82 -0.27, 103.96 1.61, 114.94 3.39 C125.91 5.18, 136.47 7.46, 143.26 10.54 C150.05 13.63, 154.42 18.2, 155.68 21.9 C156.93 25.6, 155.15 29.19, 150.8 32.73 C146.46 36.27, 138.82 40.54, 129.61 43.14 C120.41 45.75, 107.19 47.41, 95.58 48.36 C83.97 49.3, 71.48 49.86, 59.93 48.81 C48.39 47.77, 35.44 44.8, 26.3 42.08 C17.17 39.37, 9.47 36.1, 5.13 32.51 C0.8 28.91, -1.24 24.31, 0.32 20.52 C1.88 16.72, 7.68 12.83, 14.48 9.76 C21.27 6.69, 28.44 3.56, 41.08 2.11 C53.72 0.66, 79.92 1.04, 90.33 1.06 C100.75 1.08, 103.56 1.82, 103.56 2.22 M50.41 2.71 C60.75 1.03, 76.43 -1.44, 88.47 -1.25 C100.51 -1.06, 112.99 1.37, 122.64 3.86 C132.29 6.35, 140.64 10.36, 146.35 13.7 C152.05 17.04, 156.75 20, 156.86 23.88 C156.97 27.77, 152.64 33.35, 147.03 37 C141.41 40.65, 132.83 43.73, 123.18 45.77 C113.52 47.8, 101.27 48.9, 89.1 49.21 C76.94 49.53, 61.71 49.11, 50.2 47.67 C38.69 46.23, 27.93 43.53, 20.06 40.58 C12.2 37.64, 6.2 33.8, 3 29.99 C-0.21 26.18, -2.07 21.31, 0.83 17.72 C3.74 14.13, 12.38 11.29, 20.44 8.44 C28.49 5.59, 43.95 1.45, 49.16 0.59 C54.37 -0.26, 50.82 2.95, 51.68 3.3" stroke="#1e1e1e" stroke-width="2" fill="none"></path></g><g transform="translate(255.9706710674493 107.17588386092956) rotate(0 46.875 12)"><text x="46.875" y="19.3125" font-family="Cascadia, Segoe UI Emoji" font-size="20px" fill="#1e1e1e" text-anchor="middle" style="white-space: pre;" direction="ltr" dominant-baseline="alphabetic">Thread B</text></g><g stroke-linecap="round" transform="translate(564 56.5) rotate(0 205 64.5)"><path d="M32 0 C139.89 -0.89, 249.78 -2.38, 378 0 M32 0 C109.96 -0.24, 186.32 -0.59, 378 0 M378 0 C399.27 1.36, 409.55 9.18, 410 32 M378 0 C398.96 1.41, 410.33 12.57, 410 32 M410 32 C409.04 57.66, 407.97 84.7, 410 97 M410 32 C409.95 50.71, 410.24 69.07, 410 97 M410 97 C411.04 118.27, 398.78 130.84, 378 129 M410 97 C408.91 118.14, 399.73 127.49, 378 129 M378 129 C272.04 126.4, 167.75 128.36, 32 129 M378 129 C292.17 129.99, 205.32 129.4, 32 129 M32 129 C10.66 127.13, -0.57 118.12, 0 97 M32 129 C11.36 129.69, 1.99 119.14, 0 97 M0 97 C1.1 73.07, 1.36 50.59, 0 32 M0 97 C0.42 82.81, -0.15 68.24, 0 32 M0 32 C-1.35 11, 10.98 1.92, 32 0 M0 32 C2.08 11.26, 11.11 -1.86, 32 0" stroke="#1971c2" stroke-width="2" fill="none"></path></g><g stroke-linecap="round" transform="translate(680 95.5) rotate(0 78 24.5)"><path d="M71.07 0.86 C82.58 0.01, 97.03 -0.39, 108.14 0.93 C119.24 2.25, 129.9 5.73, 137.7 8.76 C145.5 11.79, 152.47 15.42, 154.92 19.11 C157.38 22.79, 155.66 27.17, 152.42 30.89 C149.17 34.61, 143.48 38.47, 135.47 41.42 C127.46 44.37, 115.97 47.31, 104.35 48.59 C92.74 49.87, 77.9 49.8, 65.77 49.08 C53.64 48.36, 41.33 46.46, 31.55 44.28 C21.77 42.1, 12.36 39.41, 7.08 36.01 C1.81 32.6, -0.72 27.79, -0.1 23.86 C0.51 19.92, 4.8 15.68, 10.76 12.39 C16.73 9.1, 22.78 6.08, 35.66 4.13 C48.55 2.19, 76.58 1.14, 88.06 0.73 C99.54 0.33, 104.51 1.47, 104.52 1.71 M74.77 -1.24 C85.95 -1.79, 99.42 -0.58, 110.17 1.18 C120.92 2.94, 131.59 6.23, 139.26 9.33 C146.94 12.43, 153.85 15.85, 156.2 19.77 C158.55 23.7, 157.14 29.19, 153.38 32.9 C149.61 36.61, 142.44 39.75, 133.61 42.02 C124.79 44.3, 112.3 45.71, 100.45 46.56 C88.6 47.41, 74.55 47.65, 62.53 47.11 C50.51 46.58, 37.65 45.44, 28.35 43.35 C19.06 41.26, 11.22 37.97, 6.75 34.59 C2.28 31.22, 0.53 27.01, 1.54 23.1 C2.55 19.2, 6.56 14.34, 12.81 11.17 C19.05 7.99, 28.81 5.75, 39.01 4.04 C49.21 2.34, 68.11 1.73, 74.02 0.95 C79.94 0.17, 74.24 -1.04, 74.49 -0.65" stroke="#1e1e1e" stroke-width="2" fill="none"></path></g><g transform="translate(710.9706710674493 108.17588386092956) rotate(0 46.875 12)"><text x="46.875" y="19.3125" font-family="Cascadia, Segoe UI Emoji" font-size="20px" fill="#1e1e1e" text-anchor="middle" style="white-space: pre;" direction="ltr" dominant-baseline="alphabetic">Thread D</text></g><g stroke-linecap="round" transform="translate(457 497) rotate(0 44.5 44.5)"><path d="M56.25 11.25 C65.41 21.72, 74.68 28.01, 77.75 33.75 M56.25 11.25 C62.14 18.39, 69.57 25.84, 77.75 33.75 M77.75 33.75 C89.17 46.33, 88.86 43.97, 77.75 56.25 M77.75 33.75 C89.12 43.35, 90.51 46.15, 77.75 56.25 M77.75 56.25 C72.01 63.29, 64.92 69.55, 56.25 77.75 M77.75 56.25 C72.28 61.66, 66.93 66.51, 56.25 77.75 M56.25 77.75 C45.93 90.03, 43.68 89.5, 33.75 77.75 M56.25 77.75 C44.14 87, 44.91 88.09, 33.75 77.75 M33.75 77.75 C24.41 70.69, 15.48 60.34, 11.25 56.25 M33.75 77.75 C29.54 73.74, 24.43 68.77, 11.25 56.25 M11.25 56.25 C-1.26 46.78, 0.46 46.88, 11.25 33.75 M11.25 56.25 C-1.66 43.76, 2.23 43.94, 11.25 33.75 M11.25 33.75 C18.81 25.93, 24.97 22.29, 33.75 11.25 M11.25 33.75 C17.39 29.41, 20.43 24.3, 33.75 11.25 M33.75 11.25 C46.29 0.95, 45.31 -1.09, 56.25 11.25 M33.75 11.25 C43.65 0.64, 45.09 -1.64, 56.25 11.25" stroke="#e03131" stroke-width="2" fill="none"></path></g><g transform="translate(477 321) rotate(0 20 49.5)" stroke="none"><path d="M2.21 -0.96 C2.97 -2.13, -0.26 -3.52, 2.12 -5.37 C4.5 -7.22, 12.62 -10.21, 16.48 -12.06 C20.34 -13.91, 22.28 -15.94, 25.27 -16.47 C28.26 -17, 31.94 -15.38, 34.43 -15.25 C36.92 -15.13, 35.76 -19.54, 40.2 -15.72 C44.64 -11.89, 57.54 -0.11, 61.07 7.69 C64.59 15.5, 60.77 26.8, 61.34 31.14 C61.91 35.47, 60.74 33.07, 64.5 33.7 C68.26 34.33, 75.37 36.21, 83.91 34.91 C92.45 33.61, 108.02 26.76, 115.73 25.92 C123.43 25.08, 127.11 29.19, 130.12 29.87 C133.14 30.55, 132.11 28.84, 133.82 29.99 C135.53 31.13, 138.7 33.2, 140.39 36.75 C142.08 40.3, 143 45.32, 143.96 51.28 C144.93 57.25, 145.48 68.35, 146.19 72.53 C146.9 76.71, 148.61 74.09, 148.22 76.35 C147.82 78.61, 145.39 82.74, 143.83 86.07 C142.27 89.39, 142.69 92.74, 138.84 96.29 C135 99.84, 126.23 104.62, 120.77 107.36 C115.31 110.11, 110.63 111.16, 106.08 112.77 C101.53 114.37, 113.83 116.48, 93.48 116.99 C73.12 117.49, 4.63 116.29, -16.03 115.8 C-36.69 115.32, -23.66 114.72, -30.49 114.07 C-37.31 113.41, -52.1 113.06, -56.96 111.88 C-61.83 110.7, -57.07 107.94, -59.67 106.99 C-62.28 106.03, -68.49 107.49, -72.6 106.14 C-76.71 104.79, -80.35 100.75, -84.34 98.89 C-88.33 97.03, -94.56 96.28, -96.54 94.97 C-98.51 93.67, -95.69 92.04, -96.18 91.08 C-96.66 90.13, -97.79 92.01, -99.47 89.25 C-101.15 86.49, -104.85 83.14, -106.24 74.53 C-107.63 65.92, -111.33 43.22, -107.8 37.59 C-104.27 31.96, -92.77 39.93, -85.03 40.76 C-77.29 41.59, -65.56 42.61, -61.36 42.56 C-57.16 42.5, -60.66 41.58, -59.85 40.44 C-59.03 39.3, -57.61 40.77, -56.47 35.7 C-55.33 30.63, -53.45 14.84, -53 10.03 C-52.55 5.22, -56.01 8.28, -53.78 6.81 C-51.55 5.34, -41.78 2, -39.61 1.22 C-37.43 0.44, -41.68 2.63, -40.72 2.15 C-39.77 1.68, -36.55 -1.52, -33.89 -1.63 C-31.23 -1.73, -26.71 0.41, -24.76 1.54 C-22.81 2.66, -23.11 4.53, -22.19 5.11 C-21.27 5.69, -20.54 7.58, -19.27 5.03 C-17.99 2.48, -15.81 -6.26, -14.55 -10.19 C-13.29 -14.11, -12.3 -17.05, -11.71 -18.52 C-11.12 -19.98, -11.6 -20.23, -11.03 -18.98 C-10.46 -17.73, -9.65 -13.65, -8.27 -11.02 C-6.9 -8.39, -3.76 -4.69, -2.79 -3.18 C-1.82 -1.66, -2.94 -2.46, -2.46 -1.93 C-1.98 -1.4, -0.24 -0.33, 0.1 -0.01" stroke="none" stroke-width="0" fill="#b2f2bb" fill-rule="evenodd"></path><path fill="#2f9e44" d="M -2.91,-3.88 Q -2.91,-3.88 0.71,-6.23 4.33,-8.59 7.35,-10.58 10.36,-12.57 13.58,-14.15 16.81,-15.72 19.37,-16.78 21.93,-17.84 24.79,-18.41 27.66,-18.99 31.70,-19.15 35.73,-19.30 38.63,-18.36 41.52,-17.41 43.85,-15.55 46.18,-13.68 48.76,-11.40 51.33,-9.11 54.15,-6.21 56.96,-3.31 58.85,-1.60 60.74,0.10 62.07,2.31 63.41,4.52 64.01,6.59 64.61,8.66 64.87,10.79 65.13,12.93 65.21,15.56 65.29,18.19 65.47,21.13 65.64,24.07 65.83,26.64 66.02,29.21 71.57,28.54 77.12,27.87 83.40,27.31 89.69,26.75 96.82,26.05 103.96,25.34 110.00,25.11 116.03,24.89 120.02,24.78 124.02,24.67 126.54,24.72 129.06,24.76 132.94,26.95 136.83,29.14 138.31,30.86 139.78,32.58 141.23,35.46 142.68,38.34 143.97,41.84 145.26,45.34 146.17,48.75 147.09,52.15 147.61,54.56 148.13,56.97 148.63,59.28 149.14,61.59 149.66,64.01 150.18,66.43 150.39,69.81 150.60,73.18 149.96,77.25 149.31,81.32 148.11,84.75 146.91,88.18 145.11,91.47 143.30,94.76 140.49,97.65 137.68,100.53 134.70,102.84 131.73,105.15 129.42,107.00 127.11,108.85 123.80,110.63 120.49,112.41 117.44,113.96 114.40,115.52 110.50,116.78 106.61,118.04 102.86,118.87 99.11,119.70 95.65,120.12 92.20,120.54 85.19,120.50 78.18,120.47 71.51,120.39 64.85,120.31 57.99,120.23 51.13,120.15 44.77,120.08 38.40,120.02 33.69,119.97 28.97,119.91 24.95,119.93 20.93,119.95 17.79,120.11 14.64,120.28 11.30,120.38 7.95,120.48 4.22,120.49 0.50,120.49 -4.52,120.38 -9.56,120.26 -15.51,119.88 -21.46,119.51 -26.95,118.74 -32.44,117.96 -37.72,116.74 -43.00,115.51 -46.64,114.81 -50.27,114.12 -53.78,112.97 -57.28,111.82 -61.37,110.70 -65.45,109.58 -70.50,107.89 -75.55,106.19 -79.73,104.58 -83.90,102.97 -87.48,101.48 -91.06,99.99 -93.72,98.53 -96.39,97.08 -98.34,95.51 -100.30,93.95 -102.61,90.99 -104.93,88.02 -105.96,85.92 -106.99,83.82 -108.02,81.12 -109.06,78.41 -109.51,74.49 -109.96,70.56 -110.08,66.94 -110.20,63.33 -110.22,59.78 -110.24,56.23 -110.32,53.29 -110.40,50.35 -110.65,46.77 -110.90,43.18 -109.81,40.62 -108.72,38.05 -106.98,36.80 -105.24,35.55 -101.84,35.53 -98.43,35.51 -94.15,36.19 -89.87,36.88 -85.32,37.28 -80.77,37.68 -75.38,37.93 -69.99,38.19 -67.61,37.80 -65.24,37.40 -63.10,36.62 -60.97,35.83 -60.74,32.66 -60.52,29.48 -60.57,25.96 -60.63,22.43 -60.74,19.63 -60.85,16.82 -60.61,13.04 -60.37,9.26 -59.46,7.23 -58.55,5.20 -56.22,2.42 -53.88,-0.36 -50.43,-1.66 -46.98,-2.96 -43.66,-4.41 -40.34,-5.86 -37.71,-6.26 -35.08,-6.66 -32.16,-6.15 -29.24,-5.64 -26.58,-5.35 -23.91,-5.07 -21.91,-3.96 -19.90,-2.85 -22.32,-1.48 -24.74,-0.11 -24.03,-3.44 -23.32,-6.78 -22.30,-10.43 -21.27,-14.07 -18.70,-17.91 -16.12,-21.74 -13.42,-22.38 -10.72,-23.03 -8.06,-21.56 -5.39,-20.09 -3.88,-17.46 -2.37,-14.83 -1.04,-13.12 0.28,-11.41 1.93,-8.58 3.57,-5.75 4.36,-4.89 5.15,-4.02 5.66,-3.09 6.17,-2.16 6.35,-1.12 6.54,-0.08 6.38,0.96 6.22,2.01 5.74,2.95 5.25,3.89 4.49,4.63 3.73,5.36 2.78,5.82 1.82,6.28 0.77,6.40 -0.27,6.53 -1.30,6.32 -2.34,6.10 -3.25,5.57 -4.17,5.03 -4.86,4.23 -5.56,3.44 -5.96,2.46 -6.37,1.48 -6.44,0.42 -6.51,-0.62 -6.24,-1.65 -5.97,-2.67 -5.38,-3.55 -4.80,-4.43 -3.96,-5.09 -3.13,-5.74 -2.13,-6.09 -1.13,-6.44 -0.07,-6.45 0.97,-6.46 1.98,-6.14 2.99,-5.81 3.84,-5.18 4.69,-4.55 5.29,-3.68 5.90,-2.81 6.19,-1.80 6.49,-0.78 6.44,0.27 6.40,1.32 6.02,2.31 5.64,3.30 4.97,4.11 4.29,4.93 3.39,5.49 2.49,6.04 1.46,6.28 0.43,6.52 -0.61,6.42 -1.67,6.32 -2.63,5.89 -3.60,5.45 -4.38,4.74 -5.15,4.02 -5.15,4.02 -5.15,4.02 -7.43,0.47 -9.71,-3.08 -11.47,-6.91 -13.23,-10.74 -10.67,-10.67 -8.12,-10.60 -8.92,-7.59 -9.73,-4.59 -10.00,-2.42 -10.27,-0.24 -10.75,1.96 -11.22,4.17 -13.04,6.18 -14.86,8.18 -19.15,9.19 -23.45,10.20 -26.92,8.90 -30.39,7.61 -33.67,7.03 -36.96,6.46 -39.74,7.74 -42.51,9.01 -45.49,10.62 -48.47,12.23 -48.81,14.54 -49.15,16.86 -49.29,19.71 -49.42,22.57 -49.62,26.35 -49.81,30.13 -50.65,34.12 -51.48,38.11 -54.15,41.06 -56.83,44.00 -60.63,44.68 -64.43,45.36 -67.25,45.49 -70.07,45.62 -75.55,45.75 -81.03,45.89 -85.82,46.00 -90.61,46.11 -95.84,44.63 -101.07,43.15 -101.29,46.70 -101.50,50.26 -101.52,53.16 -101.54,56.05 -101.41,59.47 -101.29,62.89 -101.06,66.18 -100.84,69.48 -100.49,72.35 -100.14,75.22 -99.29,77.68 -98.43,80.15 -97.38,83.20 -96.33,86.25 -94.51,88.81 -92.68,91.37 -90.66,92.93 -88.64,94.49 -85.27,96.04 -81.89,97.60 -77.81,99.08 -73.73,100.56 -68.83,102.08 -63.93,103.61 -59.49,104.66 -55.05,105.70 -52.02,106.94 -48.99,108.18 -45.36,109.04 -41.74,109.91 -36.71,111.00 -31.67,112.09 -26.41,112.71 -21.16,113.33 -15.36,113.53 -9.56,113.73 -4.52,113.61 0.50,113.50 4.22,113.50 7.95,113.51 11.29,113.61 14.64,113.71 17.79,113.87 20.93,114.04 24.95,114.05 28.96,114.06 33.68,114.00 38.39,113.94 44.75,113.85 51.11,113.76 57.94,113.63 64.78,113.50 71.40,113.29 78.02,113.09 84.67,112.76 91.33,112.43 94.33,112.16 97.32,111.89 100.63,111.10 103.95,110.30 107.20,109.09 110.46,107.89 113.41,106.33 116.36,104.78 119.05,103.32 121.74,101.86 124.06,100.13 126.39,98.40 128.91,96.35 131.43,94.31 133.43,92.35 135.43,90.40 136.84,87.72 138.24,85.04 139.18,82.53 140.12,80.03 140.46,76.91 140.79,73.79 140.60,71.06 140.40,68.33 139.97,65.85 139.54,63.38 138.95,58.96 138.35,54.54 137.55,51.65 136.75,48.77 135.34,45.59 133.93,42.41 133.10,40.39 132.27,38.37 130.93,35.83 129.60,33.28 126.96,32.56 124.33,31.83 120.44,32.08 116.55,32.32 110.81,32.92 105.07,33.51 98.03,34.74 90.99,35.97 84.21,37.26 77.43,38.55 71.66,39.09 65.89,39.63 62.45,38.76 59.02,37.88 57.17,36.15 55.31,34.43 54.64,31.83 53.96,29.22 54.14,26.69 54.32,24.17 54.42,21.30 54.53,18.44 54.49,16.09 54.45,13.74 54.22,10.30 53.98,6.87 52.30,5.18 50.63,3.49 47.76,1.11 44.88,-1.26 42.20,-3.30 39.52,-5.33 36.03,-7.64 32.54,-9.95 28.75,-9.74 24.95,-9.53 22.69,-8.82 20.43,-8.10 17.74,-6.86 15.05,-5.62 12.25,-3.68 9.46,-1.75 6.18,1.06 2.91,3.88 2.40,4.17 1.89,4.46 1.33,4.62 0.77,4.79 0.18,4.81 -0.39,4.83 -0.96,4.71 -1.54,4.60 -2.06,4.34 -2.59,4.09 -3.04,3.72 -3.50,3.35 -3.85,2.88 -4.20,2.42 -4.43,1.88 -4.66,1.34 -4.75,0.76 -4.84,0.19 -4.80,-0.39 -4.75,-0.97 -4.56,-1.52 -4.38,-2.08 -4.06,-2.57 -3.75,-3.07 -3.33,-3.47 -2.91,-3.88 -2.91,-3.88 L -2.91,-3.88 Z"></path></g><g transform="translate(455 359.4) rotate(0 36 21.600000000000023)"><text x="0" y="34.762499999999996" font-family="Cascadia, Segoe UI Emoji" font-size="36px" fill="#e03131" text-anchor="start" style="white-space: pre;" direction="ltr" dominant-baseline="alphabetic">网络</text></g><g transform="translate(469 526.2) rotate(0 32.8125 16.80000000000001)"><text x="0" y="27.0375" font-family="Cascadia, Segoe UI Emoji" font-size="28px" fill="#1e1e1e" text-anchor="start" style="white-space: pre;" direction="ltr" dominant-baseline="alphabetic">Lock</text></g><g transform="translate(173 18) rotate(0 36.203125 16.799999999999997)"><text x="0" y="27.0375" font-family="Cascadia, Segoe UI Emoji" font-size="28px" fill="#1e1e1e" text-anchor="start" style="white-space: pre;" direction="ltr" dominant-baseline="alphabetic">主机A</text></g><g transform="translate(723 10) rotate(0 36.203125 16.799999999999997)"><text x="0" y="27.0375" font-family="Cascadia, Segoe UI Emoji" font-size="28px" fill="#1e1e1e" text-anchor="start" style="white-space: pre;" direction="ltr" dominant-baseline="alphabetic">主机B</text></g><g stroke-linecap="round"><g transform="translate(97 140) rotate(0 165 99.5)"><path d="M0.73 -0.98 C55.79 32.45, 275.23 166.43, 330.01 199.95 M-0.35 1.12 C54.59 34.29, 274.29 165.45, 329.07 198.33" stroke="#1e1e1e" stroke-width="2" fill="none"></path></g><g transform="translate(97 140) rotate(0 165 99.5)"><path d="M304.52 193.6 C309.51 194.76, 319.36 195.07, 329.07 198.33 M304.52 193.6 C314.71 196.68, 323.36 198.03, 329.07 198.33" stroke="#1e1e1e" stroke-width="2" fill="none"></path></g><g transform="translate(97 140) rotate(0 165 99.5)"><path d="M313.31 178.93 C315.84 184.1, 323.32 188.39, 329.07 198.33 M313.31 178.93 C319.92 187.72, 325.1 194.88, 329.07 198.33" stroke="#1e1e1e" stroke-width="2" fill="none"></path></g></g><mask></mask><g stroke-linecap="round"><g transform="translate(301 143) rotate(0 83.5 86)"><path d="M-1.11 -1 C26.7 27.52, 138.08 143, 166.17 172 M0.51 1.09 C28.75 29.74, 140.72 145.19, 168.45 173.53" stroke="#1e1e1e" stroke-width="2" fill="none"></path></g><g transform="translate(301 143) rotate(0 83.5 86)"><path d="M145.94 162.66 C149.82 164.14, 156.95 168.88, 168.45 173.53 M145.94 162.66 C153.65 166.6, 162.78 170.28, 168.45 173.53" stroke="#1e1e1e" stroke-width="2" fill="none"></path></g><g transform="translate(301 143) rotate(0 83.5 86)"><path d="M158.19 150.73 C159.18 154.99, 163.33 162.64, 168.45 173.53 M158.19 150.73 C161.13 159.24, 165.59 167.47, 168.45 173.53" stroke="#1e1e1e" stroke-width="2" fill="none"></path></g></g><mask></mask><g stroke-linecap="round"><g transform="translate(767 145) rotate(0 -124 84)"><path d="M-0.42 -0.92 C-41.61 27.31, -206.1 140.28, -247.48 168.29 M1.57 1.22 C-39.7 29.16, -206.26 138.52, -248.15 166.32" stroke="#1e1e1e" stroke-width="2" fill="none"></path></g><g transform="translate(767 145) rotate(0 -124 84)"><path d="M-233.26 146.24 C-239.01 152.51, -241.04 155.97, -248.15 166.32 M-233.26 146.24 C-237.16 151.63, -239.8 154.66, -248.15 166.32" stroke="#1e1e1e" stroke-width="2" fill="none"></path></g><g transform="translate(767 145) rotate(0 -124 84)"><path d="M-223.84 160.52 C-232.02 162.87, -236.6 162.47, -248.15 166.32 M-223.84 160.52 C-229.81 162.63, -234.61 162.38, -248.15 166.32" stroke="#1e1e1e" stroke-width="2" fill="none"></path></g></g><mask></mask><g stroke-linecap="round"><g transform="translate(437 369) rotate(0 27.5 69.5)"><path d="M-0.74 -0.14 C8.24 23.03, 45.36 115.19, 54.84 138.37 M1.07 -1.26 C9.79 22.12, 44.66 116, 53.81 139.58" stroke="#1e1e1e" stroke-width="2" fill="none"></path></g><g transform="translate(437 369) rotate(0 27.5 69.5)"><path d="M37.5 120.63 C43.39 127.71, 48.81 137.12, 53.81 139.58 M37.5 120.63 C41.79 127.17, 46.48 132.3, 53.81 139.58" stroke="#1e1e1e" stroke-width="2" fill="none"></path></g><g transform="translate(437 369) rotate(0 27.5 69.5)"><path d="M53.49 114.58 C53.24 123.87, 52.55 135.59, 53.81 139.58 M53.49 114.58 C53.07 122.89, 53.07 129.79, 53.81 139.58" stroke="#1e1e1e" stroke-width="2" fill="none"></path></g></g><mask></mask><g stroke-linecap="round"><g transform="translate(472 323) rotate(0 16.5 89)"><path d="M-0.86 0.19 C4.71 29.87, 26.99 148.67, 32.55 178.18 M0.9 -0.75 C6.34 29.14, 26.27 149.99, 31.37 179.82" stroke="#1e1e1e" stroke-width="2" fill="none"></path></g><g transform="translate(472 323) rotate(0 16.5 89)"><path d="M19.05 158.06 C22.21 162.39, 25.02 167.27, 31.37 179.82 M19.05 158.06 C21.19 162.53, 25.23 168.59, 31.37 179.82" stroke="#1e1e1e" stroke-width="2" fill="none"></path></g><g transform="translate(472 323) rotate(0 16.5 89)"><path d="M35.91 155.23 C35.21 160.09, 34.16 165.61, 31.37 179.82 M35.91 155.23 C34.04 160.3, 34.07 167.03, 31.37 179.82" stroke="#1e1e1e" stroke-width="2" fill="none"></path></g></g><mask></mask><g stroke-linecap="round"><g transform="translate(523 318) rotate(0 -7.5 88.5)"><path d="M0.09 0.72 C-2.3 30.33, -12.51 147.21, -15.09 176.57 M-1.33 0.05 C-3.81 29.93, -13.59 148.2, -16.08 177.89" stroke="#1e1e1e" stroke-width="2" fill="none"></path></g><g transform="translate(523 318) rotate(0 -7.5 88.5)"><path d="M-22.65 153.77 C-20.14 159.28, -20.5 164.5, -16.08 177.89 M-22.65 153.77 C-20.82 160.71, -18.6 166.91, -16.08 177.89" stroke="#1e1e1e" stroke-width="2" fill="none"></path></g><g transform="translate(523 318) rotate(0 -7.5 88.5)"><path d="M-5.61 155.19 C-7.09 160.38, -11.45 165.27, -16.08 177.89 M-5.61 155.19 C-8.77 161.79, -11.53 167.58, -16.08 177.89" stroke="#1e1e1e" stroke-width="2" fill="none"></path></g></g><mask></mask><g transform="translate(546 450) rotate(0 28 16.80000000000001)"><text x="0" y="27.0375" font-family="Cascadia, Segoe UI Emoji" font-size="28px" fill="#1e1e1e" text-anchor="start" style="white-space: pre;" direction="ltr" dominant-baseline="alphabetic">竞争</text></g></svg>