<svg version="1.1" xmlns="http://www.w3.org/2000/svg" viewBox="0 0 665 459" width="665" height="459">
  <!-- svg-source:excalidraw -->
  
  <defs>
    <style class="style-fonts">
      @font-face {
        font-family: "Virgil";
        src: url("https://excalidraw.com/Virgil.woff2");
      }
      @font-face {
        font-family: "Cascadia";
        src: url("https://excalidraw.com/Cascadia.woff2");
      }
      @font-face {
        font-family: "Assistant";
        src: url("https://excalidraw.com/Assistant-Regular.woff2");
      }
    </style>
    
  </defs>
  <rect x="0" y="0" width="665" height="459" fill="#ffffff"></rect><g stroke-linecap="round" transform="translate(10 10) rotate(0 322.5 219.5)"><path d="M32 0 C258.68 -2.82, 486.02 -2.12, 613 0 M32 0 C250.36 1.67, 468.61 1.25, 613 0 M613 0 C632.79 -2, 644.24 10.89, 645 32 M613 0 C632.82 0.44, 645.22 8.62, 645 32 M645 32 C642.41 176.45, 643.36 320.02, 645 407 M645 32 C645.22 119.3, 645.46 206.8, 645 407 M645 407 C646.48 429.79, 634.02 437.64, 613 439 M645 407 C646.21 430.03, 633.75 439.37, 613 439 M613 439 C462.88 441.96, 311.98 440.39, 32 439 M613 439 C402.9 439.08, 192.85 439.06, 32 439 M32 439 C9.63 439.18, 0.78 426.72, 0 407 M32 439 C10.77 439.58, -1.66 426.33, 0 407 M0 407 C-1.39 296.21, -1.24 186.34, 0 32 M0 407 C-0.04 311.35, -0.38 217.28, 0 32 M0 32 C-1.89 8.91, 9.31 -1.27, 32 0 M0 32 C-1.61 8.55, 11.42 0.43, 32 0" stroke="#1e1e1e" stroke-width="2" fill="none"></path></g><g stroke-linecap="round" transform="translate(84 101) rotate(0 78 24.5)"><path d="M105.76 0.97 C117.08 2.06, 129.49 6.15, 137.68 9.25 C145.86 12.34, 152.36 15.91, 154.85 19.56 C157.35 23.21, 155.78 27.57, 152.63 31.14 C149.49 34.72, 143.9 38.39, 135.97 41.01 C128.03 43.63, 116.37 45.69, 105.03 46.89 C93.69 48.08, 79.98 48.55, 67.93 48.17 C55.88 47.8, 42.54 46.86, 32.73 44.65 C22.92 42.45, 14.52 38.27, 9.07 34.93 C3.62 31.58, 0.15 28.39, 0.04 24.58 C-0.06 20.78, 2.8 15.42, 8.47 12.09 C14.14 8.76, 23.89 6.66, 34.09 4.59 C44.29 2.53, 56.54 0.07, 69.67 -0.32 C82.8 -0.71, 104.61 1.59, 112.86 2.26 C121.11 2.94, 119.66 3.29, 119.15 3.74 M115.49 1.38 C126.19 2.46, 134.35 6.37, 140.84 9.55 C147.34 12.73, 153.01 16.46, 154.47 20.48 C155.92 24.5, 153.64 29.78, 149.57 33.66 C145.5 37.54, 139 41.09, 130.05 43.76 C121.1 46.44, 107.46 48.9, 95.85 49.69 C84.23 50.48, 72.12 49.42, 60.37 48.5 C48.62 47.57, 34.34 46.9, 25.35 44.14 C16.36 41.37, 10.32 35.66, 6.42 31.89 C2.52 28.12, 0.77 25.3, 1.95 21.52 C3.14 17.74, 6.64 12.23, 13.51 9.21 C20.39 6.18, 32.63 4.97, 43.18 3.35 C53.72 1.73, 65.15 -0.5, 76.79 -0.53 C88.42 -0.55, 106.95 2.41, 112.98 3.21 C119.01 4.02, 113.37 3.96, 112.97 4.3" stroke="#1e1e1e" stroke-width="2" fill="none"></path></g><g transform="translate(114.9706710674493 113.67588386092956) rotate(0 46.875 12)"><text x="46.875" y="19.3125" font-family="Cascadia, Segoe UI Emoji" font-size="20px" fill="#1e1e1e" text-anchor="middle" style="white-space: pre;" direction="ltr" dominant-baseline="alphabetic">Thread A</text></g><g stroke-linecap="round" transform="translate(402 103.5) rotate(0 78 24.5)"><path d="M77.41 -0.15 C88.82 -0.27, 103.96 1.61, 114.94 3.39 C125.91 5.18, 136.47 7.46, 143.26 10.54 C150.05 13.63, 154.42 18.2, 155.68 21.9 C156.93 25.6, 155.15 29.19, 150.8 32.73 C146.46 36.27, 138.82 40.54, 129.61 43.14 C120.41 45.75, 107.19 47.41, 95.58 48.36 C83.97 49.3, 71.48 49.86, 59.93 48.81 C48.39 47.77, 35.44 44.8, 26.3 42.08 C17.17 39.37, 9.47 36.1, 5.13 32.51 C0.8 28.91, -1.24 24.31, 0.32 20.52 C1.88 16.72, 7.68 12.83, 14.48 9.76 C21.27 6.69, 28.44 3.56, 41.08 2.11 C53.72 0.66, 79.92 1.04, 90.33 1.06 C100.75 1.08, 103.56 1.82, 103.56 2.22 M50.41 2.71 C60.75 1.03, 76.43 -1.44, 88.47 -1.25 C100.51 -1.06, 112.99 1.37, 122.64 3.86 C132.29 6.35, 140.64 10.36, 146.35 13.7 C152.05 17.04, 156.75 20, 156.86 23.88 C156.97 27.77, 152.64 33.35, 147.03 37 C141.41 40.65, 132.83 43.73, 123.18 45.77 C113.52 47.8, 101.27 48.9, 89.1 49.21 C76.94 49.53, 61.71 49.11, 50.2 47.67 C38.69 46.23, 27.93 43.53, 20.06 40.58 C12.2 37.64, 6.2 33.8, 3 29.99 C-0.21 26.18, -2.07 21.31, 0.83 17.72 C3.74 14.13, 12.38 11.29, 20.44 8.44 C28.49 5.59, 43.95 1.45, 49.16 0.59 C54.37 -0.26, 50.82 2.95, 51.68 3.3" stroke="#1e1e1e" stroke-width="2" fill="none"></path></g><g transform="translate(432.9706710674493 116.17588386092956) rotate(0 46.875 12)"><text x="46.875" y="19.3125" font-family="Cascadia, Segoe UI Emoji" font-size="20px" fill="#1e1e1e" text-anchor="middle" style="white-space: pre;" direction="ltr" dominant-baseline="alphabetic">Thread B</text></g><g stroke-linecap="round" transform="translate(281 327) rotate(0 32.5 34)"><path d="M41.25 8.75 C45.9 14.1, 51.54 20.12, 56.75 26.25 M41.25 8.75 C45.34 14.74, 51.47 18.61, 56.75 26.25 M56.75 26.25 C65.23 34.62, 64.89 34.08, 56.75 43.75 M56.75 26.25 C65.86 36.08, 64.59 34.55, 56.75 43.75 M56.75 43.75 C52.17 50.42, 44.6 54.2, 41.25 59.25 M56.75 43.75 C52.49 48.65, 49.22 52.25, 41.25 59.25 M41.25 59.25 C31.25 66.77, 32.44 68.91, 24.75 59.25 M41.25 59.25 C31.25 66.17, 35.26 69.18, 24.75 59.25 M24.75 59.25 C17.51 55.25, 14.1 50.78, 8.25 43.75 M24.75 59.25 C19.52 55.41, 14.51 51.39, 8.25 43.75 M8.25 43.75 C0.31 36.4, 1.6 34.04, 8.25 26.25 M8.25 43.75 C-1.2 34.72, -2.29 34.37, 8.25 26.25 M8.25 26.25 C11.31 22.31, 20.19 15.14, 24.75 8.75 M8.25 26.25 C12.61 20.52, 18.74 16.83, 24.75 8.75 M24.75 8.75 C33.05 -0.5, 31.18 -0.63, 41.25 8.75 M24.75 8.75 C35.25 -1.05, 34.45 -0.68, 41.25 8.75" stroke="#1e1e1e" stroke-width="2" fill="none"></path></g><g transform="translate(296 401) rotate(0 23.4375 12)"><text x="0" y="19.3125" font-family="Cascadia, Segoe UI Emoji" font-size="20px" fill="#1e1e1e" text-anchor="start" style="white-space: pre;" direction="ltr" dominant-baseline="alphabetic">Lock</text></g><g stroke-linecap="round"><g transform="translate(163 149) rotate(0 73.5 85)"><path d="M0.68 -0.5 C25 27.67, 122.03 140.92, 146.58 169.45 M-0.42 -1.8 C23.65 26.48, 120.72 142.29, 145.42 170.7" stroke="#1e1e1e" stroke-width="2" fill="none"></path></g><g transform="translate(163 149) rotate(0 73.5 85)"><path d="M123.68 158.35 C130.58 161.9, 138.19 168.61, 145.42 170.7 M123.68 158.35 C130.47 162.55, 139.88 167.93, 145.42 170.7" stroke="#1e1e1e" stroke-width="2" fill="none"></path></g><g transform="translate(163 149) rotate(0 73.5 85)"><path d="M136.7 147.27 C139.04 154.81, 142.04 165.44, 145.42 170.7 M136.7 147.27 C138.93 155.5, 143.73 164.81, 145.42 170.7" stroke="#1e1e1e" stroke-width="2" fill="none"></path></g></g><mask></mask><g stroke-linecap="round"><g transform="translate(479 152) rotate(0 -78 83.5)"><path d="M0.33 -0.03 C-25.74 27.81, -129.83 139.08, -155.85 167 M-0.95 -1.1 C-27.23 26.96, -130.8 140.78, -156.72 168.53" stroke="#1e1e1e" stroke-width="2" fill="none"></path></g><g transform="translate(479 152) rotate(0 -78 83.5)"><path d="M-147.1 145.46 C-150.54 153.82, -153.86 162.03, -156.72 168.53 M-147.1 145.46 C-150.15 153.29, -153.57 161.81, -156.72 168.53" stroke="#1e1e1e" stroke-width="2" fill="none"></path></g><g transform="translate(479 152) rotate(0 -78 83.5)"><path d="M-134.52 157.04 C-142.36 161.38, -150.09 165.53, -156.72 168.53 M-134.52 157.04 C-141.93 161.03, -149.64 165.6, -156.72 168.53" stroke="#1e1e1e" stroke-width="2" fill="none"></path></g></g><mask></mask><g transform="translate(301 261) rotate(0 20 12)"><text x="0" y="19.3125" font-family="Cascadia, Segoe UI Emoji" font-size="20px" fill="#1e1e1e" text-anchor="start" style="white-space: pre;" direction="ltr" dominant-baseline="alphabetic">竞争</text></g><g transform="translate(245 27) rotate(0 110 12)"><text x="0" y="19.3125" font-family="Cascadia, Segoe UI Emoji" font-size="20px" fill="#1e1e1e" text-anchor="start" style="white-space: pre;" direction="ltr" dominant-baseline="alphabetic">同一个主机内的资源竞争</text></g></svg>