<svg version="1.1" xmlns="http://www.w3.org/2000/svg" viewBox="0 0 1362.375 767.4887553467449" width="1362.375" height="767.4887553467449">
  <!-- svg-source:excalidraw -->
  
  <defs>
    <style class="style-fonts">
      @font-face {
        font-family: "Virgil";
        src: url("https://excalidraw.com/Virgil.woff2");
      }
      @font-face {
        font-family: "Cascadia";
        src: url("https://excalidraw.com/Cascadia.woff2");
      }
      @font-face {
        font-family: "Assistant";
        src: url("https://excalidraw.com/Assistant-Regular.woff2");
      }
    </style>
    
  </defs>
  <rect x="0" y="0" width="1362.375" height="767.4887553467449" fill="#ffffff"></rect><g stroke-linecap="round" transform="translate(10 191.48875534674488) rotate(0 79.5 18.5)"><path d="M9.25 0 C53.25 -0.37, 95.9 -1.07, 149.75 0 M9.25 0 C57.1 1.67, 105.54 0.97, 149.75 0 M149.75 0 C157.88 -0.56, 158.55 1.33, 159 9.25 M149.75 0 C155.5 -1.56, 160.22 5, 159 9.25 M159 9.25 C160.37 15.91, 158.33 20.76, 159 27.75 M159 9.25 C158.77 12.91, 158.52 18.1, 159 27.75 M159 27.75 C157.43 33.49, 157.21 36.6, 149.75 37 M159 27.75 C158.84 31.88, 155.39 36.38, 149.75 37 M149.75 37 C102.26 36.62, 53.68 36.54, 9.25 37 M149.75 37 C98.22 37.32, 47.86 36.74, 9.25 37 M9.25 37 C4.68 36.44, 1.56 34.94, 0 27.75 M9.25 37 C5.15 34.73, -1.27 32.59, 0 27.75 M0 27.75 C0.52 24.82, -1.47 18.71, 0 9.25 M0 27.75 C0.46 23.33, 0.49 18.82, 0 9.25 M0 9.25 C1.23 3.33, 4.48 1.5, 9.25 0 M0 9.25 C0.73 5.32, 2.33 -0.31, 9.25 0" stroke="#1e1e1e" stroke-width="2" fill="none"></path></g><g transform="translate(23.875 200.3887553467449) rotate(0 65.625 9.599999999999994)"><text x="65.625" y="15.45" font-family="Cascadia, Segoe UI Emoji" font-size="16px" fill="#1e1e1e" text-anchor="middle" style="white-space: pre;" direction="ltr" dominant-baseline="alphabetic">ListenAndServe</text></g><g stroke-linecap="round" transform="translate(229.5 190.48875534674488) rotate(0 115 18.5)"><path d="M9.25 0 C54.71 -1.49, 102.79 -0.38, 220.75 0 M9.25 0 C73.66 0.34, 139.52 0.24, 220.75 0 M220.75 0 C227.26 0.92, 230 1.16, 230 9.25 M220.75 0 C225.3 0.99, 228.5 2.8, 230 9.25 M230 9.25 C230.26 14.21, 230.81 20.9, 230 27.75 M230 9.25 C230.52 14.08, 230.65 20.11, 230 27.75 M230 27.75 C231.42 32.45, 226.39 37.21, 220.75 37 M230 27.75 C231.24 34.09, 224.9 35.82, 220.75 37 M220.75 37 C172.13 36.76, 121.63 34.81, 9.25 37 M220.75 37 C141.36 37.16, 63.14 36.3, 9.25 37 M9.25 37 C2.54 37.51, -0.64 33, 0 27.75 M9.25 37 C1.27 35.59, -1.49 33.55, 0 27.75 M0 27.75 C-0.38 23.23, 1.62 15.7, 0 9.25 M0 27.75 C0.5 21.8, 0.39 16.4, 0 9.25 M0 9.25 C-0.43 2.35, 3.03 -1, 9.25 0 M0 9.25 C1.09 3.14, 2.29 -0.73, 9.25 0" stroke="#1e1e1e" stroke-width="2" fill="none"></path></g><g transform="translate(246.0625 199.3887553467449) rotate(0 98.4375 9.599999999999994)"><text x="98.4375" y="15.45" font-family="Cascadia, Segoe UI Emoji" font-size="16px" fill="#1e1e1e" text-anchor="middle" style="white-space: pre;" direction="ltr" dominant-baseline="alphabetic">server.ListenAndServe</text></g><g stroke-linecap="round" transform="translate(533.5 192.48875534674488) rotate(0 79.5 18.5)"><path d="M9.25 0 C46.49 -1.73, 80.42 -1.02, 149.75 0 M9.25 0 C46.86 1.34, 86.62 0.98, 149.75 0 M149.75 0 C154.8 1.68, 159.31 3.87, 159 9.25 M149.75 0 C154.77 -2.29, 159.4 1.38, 159 9.25 M159 9.25 C159.97 12.65, 159.85 17.44, 159 27.75 M159 9.25 C159.77 13.91, 159.03 18.11, 159 27.75 M159 27.75 C159.79 34.05, 155.71 37.86, 149.75 37 M159 27.75 C158.82 35.28, 156.28 36.71, 149.75 37 M149.75 37 C97.52 37.87, 49.23 35.52, 9.25 37 M149.75 37 C105.21 36.8, 60.47 36.39, 9.25 37 M9.25 37 C1.34 36.11, -1.24 32.46, 0 27.75 M9.25 37 C4.14 34.76, -0.61 31.99, 0 27.75 M0 27.75 C1.19 18.74, -0.09 11.31, 0 9.25 M0 27.75 C0.33 22.96, -0.07 20.01, 0 9.25 M0 9.25 C-0.97 4.71, 4.81 0.01, 9.25 0 M0 9.25 C-1.55 4, 4.55 -0.72, 9.25 0" stroke="#1e1e1e" stroke-width="2" fill="none"></path></g><g transform="translate(566.125 201.3887553467449) rotate(0 46.875 9.599999999999994)"><text x="46.875" y="15.45" font-family="Cascadia, Segoe UI Emoji" font-size="16px" fill="#1e1e1e" text-anchor="middle" style="white-space: pre;" direction="ltr" dominant-baseline="alphabetic">net.Listen</text></g><g stroke-linecap="round" transform="translate(782.5 191.48875534674488) rotate(0 79.5 18.5)"><path d="M9.25 0 C45.39 1.45, 81.44 -1.55, 149.75 0 M9.25 0 C61.4 -1.99, 113.1 -1.62, 149.75 0 M149.75 0 C154.72 1.58, 159.64 1.97, 159 9.25 M149.75 0 C154.6 1.7, 160.84 1.46, 159 9.25 M159 9.25 C160.03 14.27, 160.62 21.64, 159 27.75 M159 9.25 C158.37 13.55, 159.31 17.58, 159 27.75 M159 27.75 C157.99 34.25, 157.72 38.71, 149.75 37 M159 27.75 C160 32.43, 155.27 35.71, 149.75 37 M149.75 37 C102.39 36.18, 53.2 38.75, 9.25 37 M149.75 37 C96.3 37.09, 42.78 37.89, 9.25 37 M9.25 37 C1.74 38.56, 1.23 35.46, 0 27.75 M9.25 37 C4.38 37.1, -2.19 33.57, 0 27.75 M0 27.75 C-1.14 23.06, -1.3 16.31, 0 9.25 M0 27.75 C-0.76 22.92, 0.34 16.9, 0 9.25 M0 9.25 C1.67 4.68, 2.77 -0.26, 9.25 0 M0 9.25 C0.5 1.81, 4.84 1.26, 9.25 0" stroke="#1e1e1e" stroke-width="2" fill="none"></path></g><g transform="translate(805.75 200.3887553467449) rotate(0 56.25 9.599999999999994)"><text x="56.25" y="15.45" font-family="Cascadia, Segoe UI Emoji" font-size="16px" fill="#1e1e1e" text-anchor="middle" style="white-space: pre;" direction="ltr" dominant-baseline="alphabetic">server.Serve</text></g><g stroke-linecap="round" transform="translate(1026.5 192.48875534674488) rotate(0 79.5 18.5)"><path d="M9.25 0 C60 -2.22, 112.73 -1.46, 149.75 0 M9.25 0 C40.24 0.29, 70.2 0.36, 149.75 0 M149.75 0 C156.33 0.28, 159.09 3.43, 159 9.25 M149.75 0 C155.78 -1.5, 160.58 3.54, 159 9.25 M159 9.25 C160.02 12.25, 157.37 16.83, 159 27.75 M159 9.25 C159.58 13.76, 159.23 20.87, 159 27.75 M159 27.75 C158.06 34.98, 154.82 38.32, 149.75 37 M159 27.75 C159.19 35.87, 156.05 36, 149.75 37 M149.75 37 C118.53 35.99, 85.32 37.01, 9.25 37 M149.75 37 C103.96 37.29, 59.83 36.47, 9.25 37 M9.25 37 C1.91 38.04, 1.53 33.17, 0 27.75 M9.25 37 C1.55 38.01, -0.16 34.04, 0 27.75 M0 27.75 C0.13 21.6, -1.13 17.23, 0 9.25 M0 27.75 C-0.25 23.04, -0.95 18.78, 0 9.25 M0 9.25 C1.58 1.81, 4.32 0.32, 9.25 0 M0 9.25 C-1.18 4.48, 4.61 -2.07, 9.25 0" stroke="#1e1e1e" stroke-width="2" fill="none"></path></g><g transform="translate(1035.6875 201.3887553467449) rotate(0 70.3125 9.599999999999994)"><text x="70.3125" y="15.45" font-family="Cascadia, Segoe UI Emoji" font-size="16px" fill="#1e1e1e" text-anchor="middle" style="white-space: pre;" direction="ltr" dominant-baseline="alphabetic">listener.Accept</text></g><g stroke-linecap="round"><g transform="translate(170 209.9671202994162) rotate(0 28.5 0.20474145331854743)"><path d="M-0.38 -0.71 C8.89 -0.9, 46.19 -0.89, 55.92 -0.64 M1.61 1.54 C11.23 1.41, 48.7 0.83, 58.07 0.35" stroke="#1e1e1e" stroke-width="2" fill="none"></path></g><g transform="translate(170 209.9671202994162) rotate(0 28.5 0.20474145331854743)"><path d="M34.85 9.61 C41.09 4.91, 47.98 5.45, 58.07 0.35 M34.85 9.61 C41.98 6.02, 50.22 4.11, 58.07 0.35" stroke="#1e1e1e" stroke-width="2" fill="none"></path></g><g transform="translate(170 209.9671202994162) rotate(0 28.5 0.20474145331854743)"><path d="M34.33 -7.48 C40.81 -6.68, 47.87 -0.66, 58.07 0.35 M34.33 -7.48 C41.52 -5.39, 49.94 -1.62, 58.07 0.35" stroke="#1e1e1e" stroke-width="2" fill="none"></path></g></g><mask></mask><g stroke-linecap="round"><g transform="translate(464 211.50387460633942) rotate(0 34.25 -0.3812968038947986)"><path d="M0.82 -1.01 C12.3 -1.13, 57 -1.32, 68.09 -1.19 M-0.2 1.08 C11.14 1.17, 55.28 0.69, 66.93 0.13" stroke="#1e1e1e" stroke-width="2" fill="none"></path></g><g transform="translate(464 211.50387460633942) rotate(0 34.25 -0.3812968038947986)"><path d="M43.68 9.3 C47.58 6.28, 54.1 2.96, 66.93 0.13 M43.68 9.3 C50.99 5.66, 58.83 2.96, 66.93 0.13" stroke="#1e1e1e" stroke-width="2" fill="none"></path></g><g transform="translate(464 211.50387460633942) rotate(0 34.25 -0.3812968038947986)"><path d="M43.22 -7.79 C47.16 -6.74, 53.79 -5.99, 66.93 0.13 M43.22 -7.79 C50.81 -5.51, 58.81 -2.3, 66.93 0.13" stroke="#1e1e1e" stroke-width="2" fill="none"></path></g></g><mask></mask><g stroke-linecap="round"><g transform="translate(691 211.27430076952356) rotate(0 44.5 -0.07248697789162861)"><path d="M0.16 0.49 C15.15 0.74, 74.63 0.41, 89.39 0.46 M-1.22 -0.3 C13.71 -0.31, 73.81 -1.22, 88.64 -1.34" stroke="#1e1e1e" stroke-width="2" fill="none"></path></g><g transform="translate(691 211.27430076952356) rotate(0 44.5 -0.07248697789162861)"><path d="M65.25 7.49 C72.03 5.88, 78.1 2.52, 88.64 -1.34 M65.25 7.49 C73.7 3.64, 83.35 0.33, 88.64 -1.34" stroke="#1e1e1e" stroke-width="2" fill="none"></path></g><g transform="translate(691 211.27430076952356) rotate(0 44.5 -0.07248697789162861)"><path d="M65.05 -9.61 C71.73 -6.92, 77.85 -5.98, 88.64 -1.34 M65.05 -9.61 C73.65 -6.96, 83.38 -3.77, 88.64 -1.34" stroke="#1e1e1e" stroke-width="2" fill="none"></path></g></g><mask></mask><g stroke-linecap="round"><g transform="translate(942.5 209.52436666462984) rotate(0 40.75 -0.9090894870819284)"><path d="M0.62 -0.5 C14.16 -0.79, 67.85 -1.4, 81.48 -1.63 M-0.51 -1.81 C12.84 -1.89, 66.75 -0.2, 80.52 0" stroke="#1e1e1e" stroke-width="2" fill="none"></path></g><g transform="translate(942.5 209.52436666462984) rotate(0 40.75 -0.9090894870819284)"><path d="M56.83 8 C63.59 5.27, 72.33 4.18, 80.52 0 M56.83 8 C63.81 4.83, 71.48 4.05, 80.52 0" stroke="#1e1e1e" stroke-width="2" fill="none"></path></g><g transform="translate(942.5 209.52436666462984) rotate(0 40.75 -0.9090894870819284)"><path d="M57.23 -9.1 C63.87 -6.34, 72.49 -1.94, 80.52 0 M57.23 -9.1 C63.94 -7.22, 71.49 -2.96, 80.52 0" stroke="#1e1e1e" stroke-width="2" fill="none"></path></g></g><mask></mask><g transform="translate(555 150.48875534674488) rotate(0 54.0625 9.600000000000001)"><text x="0" y="15.45" font-family="Cascadia, Segoe UI Emoji" font-size="16px" fill="#1e1e1e" text-anchor="start" style="white-space: pre;" direction="ltr" dominant-baseline="alphabetic">创建TCP监听器</text></g><g transform="translate(1140 98.48875534674488) rotate(0 106.1875 9.600000000000001)"><text x="0" y="15.45" font-family="Cascadia, Segoe UI Emoji" font-size="16px" fill="#1e1e1e" text-anchor="start" style="white-space: pre;" direction="ltr" dominant-baseline="alphabetic">TCP三次握手(HTTP请求进来)</text></g><g stroke-linecap="round" transform="translate(174 546.4887553467449) rotate(0 206 105.5)"><path d="M32 0 C151.73 -3.85, 277.54 -0.64, 380 0 C397.87 2.92, 408.8 8.87, 412 32 C413.54 76.32, 414.42 127.13, 412 179 C415.31 202.2, 403.4 211.29, 380 211 C307.84 214.15, 230.25 215.55, 32 211 C8.35 212.42, -3.53 198.92, 0 179 C-0.42 136.49, -3.48 100.6, 0 32 C2.26 8.96, 10.68 0.94, 32 0" stroke="none" stroke-width="0" fill="#fff4e6"></path><path d="M32 0 C155.19 -2.47, 278.01 -1.2, 380 0 M380 0 C402.04 0.23, 411.18 9.83, 412 32 M412 32 C413.26 83.22, 413.1 130.45, 412 179 M412 179 C410.6 200.91, 401.58 209.8, 380 211 M380 211 C247.76 213.91, 112.36 211.56, 32 211 M32 211 C11.46 211.95, -0.71 200.84, 0 179 M0 179 C-0.21 125.6, -0.99 71.88, 0 32 M0 32 C0.11 9.69, 12.52 1.95, 32 0" stroke="#1e1e1e" stroke-width="2.5" fill="none" stroke-dasharray="8 10"></path></g><g stroke-linecap="round" transform="translate(212 591.4887553467449) rotate(0 84 20)"><path d="M10 0 C53.42 0, 96.84 0, 158 0 C164.67 0, 168 3.33, 168 10 C168 14.63, 168 19.26, 168 30 C168 36.67, 164.67 40, 158 40 C111.72 40, 65.44 40, 10 40 C3.33 40, 0 36.67, 0 30 C0 24.04, 0 18.09, 0 10 C0 3.33, 3.33 0, 10 0" stroke="none" stroke-width="0" fill="#b2f2bb"></path><path d="M10 0 C40.64 0, 71.28 0, 158 0 M10 0 C55.51 0, 101.01 0, 158 0 M158 0 C164.67 0, 168 3.33, 168 10 M158 0 C164.67 0, 168 3.33, 168 10 M168 10 C168 16.39, 168 22.77, 168 30 M168 10 C168 16.36, 168 22.72, 168 30 M168 30 C168 36.67, 164.67 40, 158 40 M168 30 C168 36.67, 164.67 40, 158 40 M158 40 C119.78 40, 81.55 40, 10 40 M158 40 C105.26 40, 52.53 40, 10 40 M10 40 C3.33 40, 0 36.67, 0 30 M10 40 C3.33 40, 0 36.67, 0 30 M0 30 C0 23.49, 0 16.99, 0 10 M0 30 C0 23.23, 0 16.45, 0 10 M0 10 C0 3.33, 3.33 0, 10 0 M0 10 C0 3.33, 3.33 0, 10 0" stroke="#1e1e1e" stroke-width="2" fill="none"></path></g><g transform="translate(258.5 601.8887553467448) rotate(0 37.5 9.600000000000023)"><text x="37.5" y="15.45" font-family="Cascadia, Segoe UI Emoji" font-size="16px" fill="#1e1e1e" text-anchor="middle" style="white-space: pre;" direction="ltr" dominant-baseline="alphabetic">patternA</text></g><g stroke-linecap="round" transform="translate(383 591.4887553467449) rotate(0 84 20)"><path d="M10 0 C62.79 0, 115.58 0, 158 0 C164.67 0, 168 3.33, 168 10 C168 14.01, 168 18.01, 168 30 C168 36.67, 164.67 40, 158 40 C113.45 40, 68.91 40, 10 40 C3.33 40, 0 36.67, 0 30 C0 23.19, 0 16.38, 0 10 C0 3.33, 3.33 0, 10 0" stroke="none" stroke-width="0" fill="#a5d8ff"></path><path d="M10 0 C54.16 0, 98.32 0, 158 0 M10 0 C66.81 0, 123.62 0, 158 0 M158 0 C164.67 0, 168 3.33, 168 10 M158 0 C164.67 0, 168 3.33, 168 10 M168 10 C168 14.78, 168 19.56, 168 30 M168 10 C168 15.56, 168 21.12, 168 30 M168 30 C168 36.67, 164.67 40, 158 40 M168 30 C168 36.67, 164.67 40, 158 40 M158 40 C119.67 40, 81.34 40, 10 40 M158 40 C114.25 40, 70.49 40, 10 40 M10 40 C3.33 40, 0 36.67, 0 30 M10 40 C3.33 40, 0 36.67, 0 30 M0 30 C0 23.44, 0 16.87, 0 10 M0 30 C0 25.25, 0 20.5, 0 10 M0 10 C0 3.33, 3.33 0, 10 0 M0 10 C0 3.33, 3.33 0, 10 0" stroke="#1e1e1e" stroke-width="2" fill="none"></path></g><g transform="translate(429.5 601.8887553467448) rotate(0 37.5 9.600000000000023)"><text x="37.5" y="15.45" font-family="Cascadia, Segoe UI Emoji" font-size="16px" fill="#1e1e1e" text-anchor="middle" style="white-space: pre;" direction="ltr" dominant-baseline="alphabetic">HandlerA</text></g><g stroke-linecap="round" transform="translate(212 635.4887553467449) rotate(0 84 20)"><path d="M10 0 C66.02 0, 122.04 0, 158 0 C164.67 0, 168 3.33, 168 10 C168 16.56, 168 23.13, 168 30 C168 36.67, 164.67 40, 158 40 C106.82 40, 55.64 40, 10 40 C3.33 40, 0 36.67, 0 30 C0 23.53, 0 17.06, 0 10 C0 3.33, 3.33 0, 10 0" stroke="none" stroke-width="0" fill="#b2f2bb"></path><path d="M10 0 C48.93 0, 87.87 0, 158 0 M10 0 C54.9 0, 99.81 0, 158 0 M158 0 C164.67 0, 168 3.33, 168 10 M158 0 C164.67 0, 168 3.33, 168 10 M168 10 C168 17.1, 168 24.2, 168 30 M168 10 C168 14.57, 168 19.14, 168 30 M168 30 C168 36.67, 164.67 40, 158 40 M168 30 C168 36.67, 164.67 40, 158 40 M158 40 C102.51 40, 47.02 40, 10 40 M158 40 C124.21 40, 90.42 40, 10 40 M10 40 C3.33 40, 0 36.67, 0 30 M10 40 C3.33 40, 0 36.67, 0 30 M0 30 C0 24.22, 0 18.44, 0 10 M0 30 C0 22.59, 0 15.18, 0 10 M0 10 C0 3.33, 3.33 0, 10 0 M0 10 C0 3.33, 3.33 0, 10 0" stroke="#1e1e1e" stroke-width="2" fill="none"></path></g><g transform="translate(258.5 645.8887553467448) rotate(0 37.5 9.600000000000023)"><text x="37.5" y="15.45" font-family="Cascadia, Segoe UI Emoji" font-size="16px" fill="#1e1e1e" text-anchor="middle" style="white-space: pre;" direction="ltr" dominant-baseline="alphabetic">patternB</text></g><g stroke-linecap="round" transform="translate(383 635.4887553467449) rotate(0 84 20)"><path d="M10 0 C68.75 0, 127.49 0, 158 0 C164.67 0, 168 3.33, 168 10 C168 14.26, 168 18.51, 168 30 C168 36.67, 164.67 40, 158 40 C124 40, 89.99 40, 10 40 C3.33 40, 0 36.67, 0 30 C0 25.24, 0 20.49, 0 10 C0 3.33, 3.33 0, 10 0" stroke="none" stroke-width="0" fill="#a5d8ff"></path><path d="M10 0 C55.46 0, 100.93 0, 158 0 M10 0 C50.46 0, 90.92 0, 158 0 M158 0 C164.67 0, 168 3.33, 168 10 M158 0 C164.67 0, 168 3.33, 168 10 M168 10 C168 16.75, 168 23.5, 168 30 M168 10 C168 16.84, 168 23.69, 168 30 M168 30 C168 36.67, 164.67 40, 158 40 M168 30 C168 36.67, 164.67 40, 158 40 M158 40 C114.28 40, 70.56 40, 10 40 M158 40 C99.28 40, 40.57 40, 10 40 M10 40 C3.33 40, 0 36.67, 0 30 M10 40 C3.33 40, 0 36.67, 0 30 M0 30 C0 23.13, 0 16.26, 0 10 M0 30 C0 24.72, 0 19.44, 0 10 M0 10 C0 3.33, 3.33 0, 10 0 M0 10 C0 3.33, 3.33 0, 10 0" stroke="#1e1e1e" stroke-width="2" fill="none"></path></g><g transform="translate(429.5 645.8887553467448) rotate(0 37.5 9.600000000000023)"><text x="37.5" y="15.45" font-family="Cascadia, Segoe UI Emoji" font-size="16px" fill="#1e1e1e" text-anchor="middle" style="white-space: pre;" direction="ltr" dominant-baseline="alphabetic">HandlerB</text></g><g stroke-linecap="round" transform="translate(212 678.4887553467449) rotate(0 84 20)"><path d="M10 0 C47.04 0, 84.08 0, 158 0 C164.67 0, 168 3.33, 168 10 C168 17.7, 168 25.41, 168 30 C168 36.67, 164.67 40, 158 40 C124.86 40, 91.73 40, 10 40 C3.33 40, 0 36.67, 0 30 C0 22.72, 0 15.44, 0 10 C0 3.33, 3.33 0, 10 0" stroke="none" stroke-width="0" fill="#b2f2bb"></path><path d="M10 0 C64.87 0, 119.75 0, 158 0 M10 0 C49.14 0, 88.28 0, 158 0 M158 0 C164.67 0, 168 3.33, 168 10 M158 0 C164.67 0, 168 3.33, 168 10 M168 10 C168 17.38, 168 24.77, 168 30 M168 10 C168 17.78, 168 25.57, 168 30 M168 30 C168 36.67, 164.67 40, 158 40 M168 30 C168 36.67, 164.67 40, 158 40 M158 40 C107.05 40, 56.09 40, 10 40 M158 40 C115.53 40, 73.07 40, 10 40 M10 40 C3.33 40, 0 36.67, 0 30 M10 40 C3.33 40, 0 36.67, 0 30 M0 30 C0 24.42, 0 18.85, 0 10 M0 30 C0 24.39, 0 18.78, 0 10 M0 10 C0 3.33, 3.33 0, 10 0 M0 10 C0 3.33, 3.33 0, 10 0" stroke="#1e1e1e" stroke-width="2" fill="none"></path></g><g transform="translate(272 688.8887553467448) rotate(0 24 9.600000000000023)"><text x="24" y="15.45" font-family="Cascadia, Segoe UI Emoji" font-size="16px" fill="#1e1e1e" text-anchor="middle" style="white-space: pre;" direction="ltr" dominant-baseline="alphabetic">。。。</text></g><g stroke-linecap="round" transform="translate(383 678.4887553467449) rotate(0 84 20)"><path d="M10 0 C67.43 0, 124.87 0, 158 0 C164.67 0, 168 3.33, 168 10 C168 16.18, 168 22.36, 168 30 C168 36.67, 164.67 40, 158 40 C119.83 40, 81.66 40, 10 40 C3.33 40, 0 36.67, 0 30 C0 24.72, 0 19.44, 0 10 C0 3.33, 3.33 0, 10 0" stroke="none" stroke-width="0" fill="#a5d8ff"></path><path d="M10 0 C39.9 0, 69.79 0, 158 0 M10 0 C55.75 0, 101.51 0, 158 0 M158 0 C164.67 0, 168 3.33, 168 10 M158 0 C164.67 0, 168 3.33, 168 10 M168 10 C168 15.4, 168 20.8, 168 30 M168 10 C168 14.74, 168 19.47, 168 30 M168 30 C168 36.67, 164.67 40, 158 40 M168 30 C168 36.67, 164.67 40, 158 40 M158 40 C125.6 40, 93.21 40, 10 40 M158 40 C127.37 40, 96.74 40, 10 40 M10 40 C3.33 40, 0 36.67, 0 30 M10 40 C3.33 40, 0 36.67, 0 30 M0 30 C0 22.16, 0 14.33, 0 10 M0 30 C0 23.47, 0 16.95, 0 10 M0 10 C0 3.33, 3.33 0, 10 0 M0 10 C0 3.33, 3.33 0, 10 0" stroke="#1e1e1e" stroke-width="2" fill="none"></path></g><g transform="translate(443 688.8887553467448) rotate(0 24 9.600000000000023)"><text x="24" y="15.45" font-family="Cascadia, Segoe UI Emoji" font-size="16px" fill="#1e1e1e" text-anchor="middle" style="white-space: pre;" direction="ltr" dominant-baseline="alphabetic">。。。</text></g><g transform="translate(285 563.4887553467449) rotate(0 14.0625 9.599999999999994)"><text x="14.0625" y="15.45" font-family="Cascadia, Segoe UI Emoji" font-size="16px" fill="#1e1e1e" text-anchor="middle" style="white-space: pre;" direction="ltr" dominant-baseline="alphabetic">Key</text></g><g transform="translate(446 563.4887553467449) rotate(0 23.4375 9.599999999999994)"><text x="0" y="15.45" font-family="Cascadia, Segoe UI Emoji" font-size="16px" fill="#1e1e1e" text-anchor="start" style="white-space: pre;" direction="ltr" dominant-baseline="alphabetic">value</text></g><g transform="translate(277 507.4887553467449) rotate(0 110.875 9.599999999999994)"><text x="0" y="15.45" font-family="Cascadia, Segoe UI Emoji" font-size="16px" fill="#1e1e1e" text-anchor="start" style="white-space: pre;" direction="ltr" dominant-baseline="alphabetic">Router 路由和函数的Map映射</text></g><g stroke-linecap="round" transform="translate(1030.5 330.4887553467449) rotate(0 79.5 18.5)"><path d="M9.25 0 C64.39 0.21, 117.79 -0.06, 149.75 0 M9.25 0 C45.45 -1.37, 80.21 -1.18, 149.75 0 M149.75 0 C155.54 0.46, 159.03 1.92, 159 9.25 M149.75 0 C158.2 -0.51, 158.47 2.34, 159 9.25 M159 9.25 C160.22 14.68, 159.32 20.49, 159 27.75 M159 9.25 C159.05 16.42, 159.02 22.82, 159 27.75 M159 27.75 C159.43 33.34, 153.99 37.25, 149.75 37 M159 27.75 C158.68 35.61, 154.02 37.54, 149.75 37 M149.75 37 C113.62 36.53, 76.7 37.31, 9.25 37 M149.75 37 C118.31 38.21, 86.25 37.18, 9.25 37 M9.25 37 C4.66 35.63, -1.46 33.33, 0 27.75 M9.25 37 C4.73 37.43, -1.39 34.91, 0 27.75 M0 27.75 C1.19 21.16, 0.54 13.2, 0 9.25 M0 27.75 C0.17 22.82, 0.7 19.36, 0 9.25 M0 9.25 C0.4 2.61, 2.49 0.18, 9.25 0 M0 9.25 C0.72 4.95, 3.99 -1.64, 9.25 0" stroke="#1e1e1e" stroke-width="2" fill="none"></path></g><g transform="translate(1044.375 339.38875534674486) rotate(0 65.625 9.599999999999994)"><text x="65.625" y="15.45" font-family="Cascadia, Segoe UI Emoji" font-size="16px" fill="#1e1e1e" text-anchor="middle" style="white-space: pre;" direction="ltr" dominant-baseline="alphabetic">server.newConn</text></g><g stroke-linecap="round"><g transform="translate(1107 230.48875534674488) rotate(0 0 47.25)"><path d="M-0.83 1.02 C-0.79 16.76, 0.2 79.01, 0.25 94.7 M0.94 0.51 C0.84 15.84, -0.15 77.25, -0.57 92.68" stroke="#e03131" stroke-width="2" fill="none"></path></g><g transform="translate(1107 230.48875534674488) rotate(0 0 47.25)"><path d="M-8.63 69.02 C-4.46 76.6, -3.4 82.37, -0.57 92.68 M-8.63 69.02 C-6.06 76.96, -2.95 84.98, -0.57 92.68" stroke="#e03131" stroke-width="2" fill="none"></path></g><g transform="translate(1107 230.48875534674488) rotate(0 0 47.25)"><path d="M8.46 69.37 C7.49 76.73, 3.4 82.4, -0.57 92.68 M8.46 69.37 C5.02 77.21, 2.1 85.1, -0.57 92.68" stroke="#e03131" stroke-width="2" fill="none"></path></g></g><mask></mask><g stroke-linecap="round" transform="translate(781.5 330.4887553467449) rotate(0 79.5 18.5)"><path d="M9.25 0 C57.69 0.89, 104.99 -0.18, 149.75 0 C157.57 -2.77, 159.69 -0.4, 159 9.25 C159.94 19.61, 157.83 20.67, 159 27.75 C156.54 31.33, 157.4 40.57, 149.75 37 C105.11 31.93, 59.75 37.02, 9.25 37 C1.52 37.17, 0.42 31.94, 0 27.75 C1.02 24.56, 0.63 22.88, 0 9.25 C-2.51 0.22, 6.61 -0.03, 9.25 0" stroke="none" stroke-width="0" fill="#ffec99"></path><path d="M9.25 0 C64 -0.22, 117.42 0.99, 149.75 0 M9.25 0 C59.79 1.94, 110.23 1.92, 149.75 0 M149.75 0 C157.18 0.73, 157.66 1.23, 159 9.25 M149.75 0 C153.97 0.49, 160.23 1.19, 159 9.25 M159 9.25 C159.43 13.62, 158.12 21.44, 159 27.75 M159 9.25 C159.5 16.91, 159.68 22.36, 159 27.75 M159 27.75 C159.46 34.87, 157.68 37.39, 149.75 37 M159 27.75 C161.22 35.89, 157.16 36.91, 149.75 37 M149.75 37 C110.16 37.56, 68.68 34.71, 9.25 37 M149.75 37 C94.16 38.12, 40.01 36.47, 9.25 37 M9.25 37 C4.18 35.55, 0.19 33.19, 0 27.75 M9.25 37 C4.61 37.18, 1.44 35.06, 0 27.75 M0 27.75 C0.55 19.95, -1.34 15.05, 0 9.25 M0 27.75 C0.82 24.47, -0.79 19.37, 0 9.25 M0 9.25 C0.58 3.35, 2.43 1.45, 9.25 0 M0 9.25 C1.22 4.42, 3.6 0.75, 9.25 0" stroke="#1e1e1e" stroke-width="2" fill="none"></path></g><g transform="translate(800.0625 339.38875534674486) rotate(0 60.9375 9.599999999999994)"><text x="60.9375" y="15.45" font-family="Cascadia, Segoe UI Emoji" font-size="16px" fill="#1e1e1e" text-anchor="middle" style="white-space: pre;" direction="ltr" dominant-baseline="alphabetic">go conn.serve</text></g><g stroke-linecap="round" transform="translate(538.5 331.4887553467449) rotate(0 90.5 17.5)"><path d="M8.75 0 C62.59 -1.85, 117.17 -1.55, 172.25 0 C178.37 0.48, 184.51 0.68, 181 8.75 C180.31 15.87, 178.17 22.09, 181 26.25 C178.57 35.42, 181.15 34.29, 172.25 35 C122.6 32.59, 75.29 32.87, 8.75 35 C6.43 36.97, 2.07 28.72, 0 26.25 C-3.04 19.72, 2.6 14.17, 0 8.75 C1.14 5.29, 3.76 -0.64, 8.75 0" stroke="none" stroke-width="0" fill="#ffec99"></path><path d="M8.75 0 C61.16 -1.5, 118.03 0.12, 172.25 0 M8.75 0 C64.11 0.67, 122.01 0.65, 172.25 0 M172.25 0 C177.28 -0.78, 180.54 3.12, 181 8.75 M172.25 0 C177.17 -1.83, 183.23 2.16, 181 8.75 M181 8.75 C181.91 12.41, 180.49 19, 181 26.25 M181 8.75 C181.19 14.29, 180.76 20.61, 181 26.25 M181 26.25 C181.36 32.99, 178.86 35.97, 172.25 35 M181 26.25 C179.13 34.08, 177.15 34.96, 172.25 35 M172.25 35 C128.52 32.92, 79.41 33.91, 8.75 35 M172.25 35 C131.59 35.61, 91.34 37.15, 8.75 35 M8.75 35 C3.59 35.94, -1.79 33.65, 0 26.25 M8.75 35 C2.19 36.11, 1.3 32.67, 0 26.25 M0 26.25 C0.45 20.99, -0.47 13.74, 0 8.75 M0 26.25 C0.81 19.8, 0.42 15.52, 0 8.75 M0 8.75 C-0.05 3.5, 3.59 -0.71, 8.75 0 M0 8.75 C-1.21 3.54, 2.14 -0.33, 8.75 0" stroke="#1e1e1e" stroke-width="2" fill="none"></path></g><g transform="translate(554 339.38875534674486) rotate(0 75 9.599999999999994)"><text x="75" y="15.45" font-family="Cascadia, Segoe UI Emoji" font-size="16px" fill="#1e1e1e" text-anchor="middle" style="white-space: pre;" direction="ltr" dominant-baseline="alphabetic">conn.readRequest</text></g><g stroke-linecap="round" transform="translate(294.5 331.4887553467449) rotate(0 90.5 17.5)"><path d="M8.75 0 C41.18 -2.99, 74.89 -2.04, 172.25 0 C180.64 -3.33, 184.32 2.25, 181 8.75 C181.13 15.34, 179.54 18.51, 181 26.25 C177.82 31.5, 180.26 37, 172.25 35 C112.78 29.76, 46.58 33.1, 8.75 35 C5.81 34, 2.01 30.32, 0 26.25 C-0.71 20.09, 2.88 15.52, 0 8.75 C-0.87 4.78, 5.4 -0.25, 8.75 0" stroke="none" stroke-width="0" fill="#ffec99"></path><path d="M8.75 0 C63.22 -0.12, 121.38 -0.54, 172.25 0 M8.75 0 C73.59 2.07, 136.19 0.66, 172.25 0 M172.25 0 C178.01 0.2, 179.99 4.06, 181 8.75 M172.25 0 C178.85 -2.03, 179.47 3, 181 8.75 M181 8.75 C181.47 14.7, 182.22 17.99, 181 26.25 M181 8.75 C180.29 12.16, 181.59 17.64, 181 26.25 M181 26.25 C182.49 34.08, 177.14 34.09, 172.25 35 M181 26.25 C179.24 31.66, 179.15 35.16, 172.25 35 M172.25 35 C117.48 38.39, 61.58 37.22, 8.75 35 M172.25 35 C137.21 34.03, 101.62 34.14, 8.75 35 M8.75 35 C1.11 34.56, -1.33 31.25, 0 26.25 M8.75 35 C4.69 34.98, 1.04 31.06, 0 26.25 M0 26.25 C-0.24 20.66, -0.76 15.9, 0 8.75 M0 26.25 C0.13 20.54, 0.43 15.5, 0 8.75 M0 8.75 C-1.39 1.24, 3.59 0.44, 8.75 0 M0 8.75 C-2.12 1.66, 2.21 0, 8.75 0" stroke="#1e1e1e" stroke-width="2" fill="none"></path></g><g transform="translate(310 339.38875534674486) rotate(0 75 9.599999999999994)"><text x="75" y="15.45" font-family="Cascadia, Segoe UI Emoji" font-size="16px" fill="#1e1e1e" text-anchor="middle" style="white-space: pre;" direction="ltr" dominant-baseline="alphabetic">server.ServeHTTP</text></g><g stroke-linecap="round" transform="translate(10.5 331.4887553467449) rotate(0 90.5 17.5)"><path d="M8.75 0 C69.21 1.87, 133.04 -1.2, 172.25 0 C177.4 -3.37, 179.79 0.48, 181 8.75 C182.51 17.5, 181.85 19.08, 181 26.25 C183.19 32.01, 176.85 33.85, 172.25 35 C109.02 31.45, 46.3 33.47, 8.75 35 C5.88 38.03, -0.9 34.78, 0 26.25 C-3.02 23.07, -0.72 12.2, 0 8.75 C-0.63 4.89, 1.36 -3.26, 8.75 0" stroke="none" stroke-width="0" fill="#ffec99"></path><path d="M8.75 0 C41.54 1.27, 76.79 2.04, 172.25 0 M8.75 0 C43.47 0.77, 78.4 1.62, 172.25 0 M172.25 0 C176.51 -1.09, 181.59 3.12, 181 8.75 M172.25 0 C177.9 -2, 179.09 1.3, 181 8.75 M181 8.75 C181.79 14.18, 181.07 21.04, 181 26.25 M181 8.75 C180.82 13.6, 180.3 20.68, 181 26.25 M181 26.25 C180.21 30.17, 179.36 35.98, 172.25 35 M181 26.25 C183.22 33.56, 179.25 33.15, 172.25 35 M172.25 35 C130.79 36.31, 91.29 37.02, 8.75 35 M172.25 35 C135.78 34.65, 98.69 34.86, 8.75 35 M8.75 35 C1.52 35.67, -0.66 31.95, 0 26.25 M8.75 35 C5.07 35.68, 0.43 33.77, 0 26.25 M0 26.25 C0.16 23.31, -1.1 17.69, 0 8.75 M0 26.25 C0.58 22.19, 0.14 16.14, 0 8.75 M0 8.75 C1.18 4.42, 3.66 1.37, 8.75 0 M0 8.75 C2.21 4.59, 5.02 1.15, 8.75 0" stroke="#1e1e1e" stroke-width="2" fill="none"></path></g><g transform="translate(63.5 339.38875534674486) rotate(0 37.5 9.599999999999994)"><text x="37.5" y="15.45" font-family="Cascadia, Segoe UI Emoji" font-size="16px" fill="#1e1e1e" text-anchor="middle" style="white-space: pre;" direction="ltr" dominant-baseline="alphabetic">response</text></g><g stroke-linecap="round"><g transform="translate(1031 346.4887553467449) rotate(0 -46.5 1)"><path d="M-0.65 0.74 C-16.34 1.06, -78.85 0.53, -94.13 0.81 M1.21 0.09 C-14.14 0.59, -76.35 1.69, -92.01 1.73" stroke="#e03131" stroke-width="2" fill="none"></path></g><g transform="translate(1031 346.4887553467449) rotate(0 -46.5 1)"><path d="M-68.62 -7.09 C-74.53 -6.43, -84.82 -0.8, -92.01 1.73 M-68.62 -7.09 C-75.93 -3.53, -84.95 -0.86, -92.01 1.73" stroke="#e03131" stroke-width="2" fill="none"></path></g><g transform="translate(1031 346.4887553467449) rotate(0 -46.5 1)"><path d="M-68.42 10.01 C-74.24 5.5, -84.59 5.97, -92.01 1.73 M-68.42 10.01 C-75.95 7.85, -85.03 4.8, -92.01 1.73" stroke="#e03131" stroke-width="2" fill="none"></path></g></g><mask></mask><g stroke-linecap="round"><g transform="translate(781 349.4887553467449) rotate(0 -31 0)"><path d="M0.66 0.42 C-9.31 0.73, -50.59 0.69, -60.95 0.72 M-0.46 -0.41 C-10.4 -0.33, -51.1 -0.85, -61.35 -1.03" stroke="#e03131" stroke-width="2" fill="none"></path></g><g transform="translate(781 349.4887553467449) rotate(0 -31 0)"><path d="M-37.73 -9.24 C-41.98 -5.67, -46.34 -4.85, -61.35 -1.03 M-37.73 -9.24 C-46.87 -6, -54.32 -2.81, -61.35 -1.03" stroke="#e03131" stroke-width="2" fill="none"></path></g><g transform="translate(781 349.4887553467449) rotate(0 -31 0)"><path d="M-37.98 7.86 C-42.01 7.91, -46.31 5.21, -61.35 -1.03 M-37.98 7.86 C-46.9 5.17, -54.27 2.42, -61.35 -1.03" stroke="#e03131" stroke-width="2" fill="none"></path></g></g><mask></mask><g stroke-linecap="round"><g transform="translate(541 351.4887553467449) rotate(0 -32.5 0)"><path d="M0.55 0.94 C-10.28 1.1, -54.49 -0.15, -65.56 -0.25 M-0.62 0.39 C-11.61 0.83, -56.33 1.52, -66.8 1.15" stroke="#e03131" stroke-width="2" fill="none"></path></g><g transform="translate(541 351.4887553467449) rotate(0 -32.5 0)"><path d="M-43.27 -7.29 C-47.73 -5.98, -55.67 -4.35, -66.8 1.15 M-43.27 -7.29 C-51.76 -5.22, -59.21 -0.76, -66.8 1.15" stroke="#e03131" stroke-width="2" fill="none"></path></g><g transform="translate(541 351.4887553467449) rotate(0 -32.5 0)"><path d="M-43.35 9.82 C-47.62 6.8, -55.55 4.1, -66.8 1.15 M-43.35 9.82 C-51.73 6.24, -59.15 5.07, -66.8 1.15" stroke="#e03131" stroke-width="2" fill="none"></path></g></g><mask></mask><g stroke-linecap="round"><g transform="translate(294 351.4887553467449) rotate(0 -52.5 0)"><path d="M-0.14 -0.57 C-17.56 -0.29, -87.47 0.25, -104.86 0.5 M-1.68 1.75 C-19.2 1.77, -88.51 -0.91, -105.74 -1.35" stroke="#e03131" stroke-width="2" fill="none"></path></g><g transform="translate(294 351.4887553467449) rotate(0 -52.5 0)"><path d="M-81.98 -9.14 C-89.39 -6.84, -94 -4.17, -105.74 -1.35 M-81.98 -9.14 C-91.44 -5.61, -100.75 -3.98, -105.74 -1.35" stroke="#e03131" stroke-width="2" fill="none"></path></g><g transform="translate(294 351.4887553467449) rotate(0 -52.5 0)"><path d="M-82.53 7.95 C-89.63 5.65, -94.09 3.73, -105.74 -1.35 M-82.53 7.95 C-91.85 5.01, -100.95 0.16, -105.74 -1.35" stroke="#e03131" stroke-width="2" fill="none"></path></g></g><mask></mask><g transform="translate(939 388.4887553467449) rotate(0 48 19.19999999999999)"><text x="48" y="15.45" font-family="Cascadia, Segoe UI Emoji" font-size="16px" fill="#1e1e1e" text-anchor="middle" style="white-space: pre;" direction="ltr" dominant-baseline="alphabetic">开启协程</text><text x="48" y="34.65" font-family="Cascadia, Segoe UI Emoji" font-size="16px" fill="#1e1e1e" text-anchor="middle" style="white-space: pre;" direction="ltr" dominant-baseline="alphabetic">异步处理请求</text></g><g stroke-linecap="round"><g transform="translate(1021.8647348202571 87.23875534674488) rotate(89.27018103056959 84.5645438875465 7.750000000000018)" fill-rule="evenodd"><path d="M0 0 C0 0, 0 0, 0 0 M0 0 C0 0, 0 0, 0 0 M-0.26 6.4 C0.6 4.68, 3.03 3.3, 4.99 0.36 M-0.26 6.4 C0.82 4.76, 2.56 2.97, 4.99 0.36 M0.13 12.04 C2.41 8.53, 7 3.91, 10.63 -0.03 M0.13 12.04 C2.41 10.09, 4.92 7.18, 10.63 -0.03 M1.84 16.17 C6.79 11.86, 10.86 5.1, 15.62 0.33 M1.84 16.17 C6.53 10.45, 13.28 2.9, 15.62 0.33 M7.48 15.78 C13.15 11.67, 16.61 6.23, 21.26 -0.07 M7.48 15.78 C11.14 12.08, 14.21 8.16, 21.26 -0.07 M12.47 16.14 C18.99 12.27, 19.86 6.43, 26.25 0.29 M12.47 16.14 C16.31 10.84, 21.76 5.37, 26.25 0.29 M18.11 15.75 C22.93 10.57, 26.71 6.38, 31.89 -0.1 M18.11 15.75 C22.98 8.89, 28.63 2.42, 31.89 -0.1 M23.1 16.11 C26.72 13.77, 31.4 9.96, 36.88 0.26 M23.1 16.11 C28.01 9.47, 33.65 4.6, 36.88 0.26 M28.74 15.71 C32.26 13.5, 36.9 6.81, 42.52 -0.14 M28.74 15.71 C32.87 11.34, 34.68 7.3, 42.52 -0.14 M33.73 16.07 C36.83 11.53, 41.75 6.6, 47.51 0.22 M33.73 16.07 C38.47 10.62, 44.82 3.47, 47.51 0.22 M39.37 15.68 C40.97 13.31, 44.73 8.2, 53.15 -0.17 M39.37 15.68 C43.81 11.51, 46.79 5.59, 53.15 -0.17 M44.36 16.04 C47.9 12.2, 50.88 7.72, 58.14 0.19 M44.36 16.04 C47.82 13.13, 50.64 9.05, 58.14 0.19 M49.35 16.4 C52.61 9.27, 61.36 3.25, 63.78 -0.21 M49.35 16.4 C54.38 11.76, 57 5.97, 63.78 -0.21 M54.99 16 C60.04 12.1, 61.99 7.49, 68.77 0.15 M54.99 16 C59.28 10.47, 63.35 6.2, 68.77 0.15 M59.98 16.36 C61.7 11.22, 67.84 9.93, 74.41 -0.24 M59.98 16.36 C65.75 9.54, 69.81 5.64, 74.41 -0.24 M65.62 15.97 C68.81 9.66, 73.66 7.17, 79.4 0.12 M65.62 15.97 C69.28 12.23, 73.62 6.18, 79.4 0.12 M70.61 16.33 C75.48 11.04, 79.6 8.23, 85.04 -0.28 M70.61 16.33 C76.57 10.81, 81.76 4.07, 85.04 -0.28 M76.25 15.93 C77.8 12.43, 80.69 8.62, 90.03 0.08 M76.25 15.93 C81.98 9.45, 87.63 2.9, 90.03 0.08 M81.24 16.29 C87.29 9.55, 93.41 5.54, 95.67 -0.31 M81.24 16.29 C85.3 13.22, 87.92 7.82, 95.67 -0.31 M101.58 -7.1 C101.58 -7.1, 101.58 -7.1, 101.58 -7.1 M101.58 -7.1 C101.58 -7.1, 101.58 -7.1, 101.58 -7.1 M86.88 15.9 C89.86 10.88, 95.99 5.78, 100.66 0.05 M86.88 15.9 C89.74 11.26, 93.12 6.98, 100.66 0.05 M101.97 -1.46 C103.36 -2.75, 104.92 -5.41, 106.56 -6.74 M101.97 -1.46 C103.27 -2.42, 103.85 -3.69, 106.56 -6.74 M91.87 16.26 C95.29 12.32, 101.25 5.46, 110.89 -5.63 M91.87 16.26 C98.3 9.71, 103.97 3.33, 110.89 -5.63 M97.51 15.86 C101.1 9.12, 108.1 7.33, 115.22 -4.51 M97.51 15.86 C103.96 8.53, 109.84 0.2, 115.22 -4.51 M101.84 16.98 C107.61 10.76, 113.05 3.21, 119.56 -3.4 M101.84 16.98 C106.53 12.34, 109.32 7.51, 119.56 -3.4 M101.58 23.38 C108.36 16.53, 112.73 11.06, 123.89 -2.28 M101.58 23.38 C105.98 18.04, 110.94 10.42, 123.89 -2.28 M108.54 21.47 C114.42 16.12, 117.51 12.48, 128.22 -1.17 M108.54 21.47 C114.27 15.37, 120.48 8.39, 128.22 -1.17 M114.83 20.32 C123.53 14.13, 126.95 6.53, 132.55 -0.05 M114.83 20.32 C117.94 15.23, 122.83 10.21, 132.55 -0.05 M121.13 19.17 C127.22 12.9, 133.08 3.35, 137.54 0.31 M121.13 19.17 C127.04 11.85, 134.64 5.39, 137.54 0.31 M128.09 17.27 C133.62 12.82, 139.02 5.18, 141.87 1.42 M128.09 17.27 C132.33 12.52, 136.26 8.86, 141.87 1.42 M134.39 16.12 C140.19 11.9, 141.31 6.27, 146.2 2.54 M134.39 16.12 C137.63 12.67, 141.4 8.09, 146.2 2.54 M141.34 14.22 C142.53 11.44, 144.79 10.38, 150.53 3.65 M141.34 14.22 C143.11 11.69, 144.97 9.9, 150.53 3.65 M147.64 13.07 C151.44 10.59, 152.88 7.08, 154.86 4.77 M147.64 13.07 C149.31 10.59, 151.42 8.27, 154.86 4.77 M154.6 11.16 C156.66 8.82, 157.57 8.18, 159.19 5.88 M154.6 11.16 C156.14 9.4, 157.57 8, 159.19 5.88 M160.9 10.01 C161.54 9.25, 162.61 7.77, 163.52 7 M160.9 10.01 C161.94 8.73, 162.66 7.63, 163.52 7 M167.85 8.11 C167.85 8.11, 167.85 8.11, 167.85 8.11 M167.85 8.11 C167.85 8.11, 167.85 8.11, 167.85 8.11" stroke="#e03131" stroke-width="0.5" fill="none"></path><path d="M0 0 C-1.24 3.92, 1.18 9.48, 0 15.5 M0 0 C0.59 4.1, 0.55 8.69, 0 15.5 M0 15.5 C24.61 13.96, 50.43 14.52, 101.48 15.5 M0 15.5 C38.04 15.11, 77.79 16.07, 101.48 15.5 M101.48 15.5 C100.8 17.07, 101.32 20.75, 101.48 23.25 M101.48 15.5 C101.61 17.28, 101.23 19.59, 101.48 23.25 M101.48 23.25 C117.92 18.58, 130.78 17.92, 169.13 7.75 M101.48 23.25 C122.98 18.51, 144.04 13.87, 169.13 7.75 M169.13 7.75 C143.56 3.63, 120.65 -4.25, 101.48 -7.75 M169.13 7.75 C143.62 2.53, 117.47 -3.89, 101.48 -7.75 M101.48 -7.75 C101.81 -5.8, 102.29 -2.83, 101.48 0 M101.48 -7.75 C101.37 -5.67, 101.24 -3.29, 101.48 0 M101.48 0 C72.64 0.94, 41.81 -1.02, 0 0 M101.48 0 C77.4 0.33, 52.67 1.09, 0 0 M0 0 C0 0, 0 0, 0 0 M0 0 C0 0, 0 0, 0 0" stroke="#e03131" stroke-width="1" fill="none"></path></g></g><mask></mask><g stroke-linecap="round"><g transform="translate(293.2759282648732 431.5926564071841) rotate(89.27018103056959 67.00864525910413 5.6116347746552435)" fill-rule="evenodd"><path d="M0 0 C0 0, 0 0, 0 0 M0 0 C0 0, 0 0, 0 0 M-0.26 6.4 C1.15 5.23, 2.7 3.27, 4.99 0.36 M-0.26 6.4 C0.74 5.12, 2.26 3.51, 4.99 0.36 M0.79 11.29 C3.69 6.56, 5.44 4.03, 10.63 -0.03 M0.79 11.29 C4.9 6.3, 8.24 1.7, 10.63 -0.03 M5.78 11.65 C9.77 6.37, 14.4 4.09, 15.62 0.33 M5.78 11.65 C8.9 8.51, 12.54 3.98, 15.62 0.33 M10.76 12.01 C12.94 9.13, 16.76 4.59, 21.26 -0.07 M10.76 12.01 C12.91 9.49, 16.39 5.69, 21.26 -0.07 M16.41 11.61 C17.65 10.22, 19.97 7.83, 26.25 0.29 M16.41 11.61 C20.24 7.94, 22.5 4.42, 26.25 0.29 M21.39 11.97 C26 9.13, 27.04 5.06, 31.89 -0.1 M21.39 11.97 C23.9 9.24, 27.24 6.3, 31.89 -0.1 M27.04 11.58 C30.15 10.31, 30.07 5.8, 36.88 0.26 M27.04 11.58 C30.65 6.82, 34.6 2.33, 36.88 0.26 M32.02 11.94 C35.96 8.59, 38.36 5.94, 42.52 -0.14 M32.02 11.94 C36.85 6.66, 40.45 3.29, 42.52 -0.14 M37.67 11.54 C40.15 8.33, 42.76 4.94, 47.51 0.22 M37.67 11.54 C39.68 9.02, 42.44 5.78, 47.51 0.22 M42.65 11.9 C46.55 8.92, 49.57 4.96, 53.15 -0.17 M42.65 11.9 C45.97 8.4, 48.73 4.76, 53.15 -0.17 M48.3 11.51 C49.03 9.88, 52.66 6.76, 58.14 0.19 M48.3 11.51 C50.12 8.62, 52.89 6.79, 58.14 0.19 M53.28 11.87 C56.11 7.65, 60.62 2.44, 63.78 -0.21 M53.28 11.87 C57.3 7.44, 60.94 2.82, 63.78 -0.21 M58.93 11.47 C61.14 8.67, 63.39 3.65, 68.77 0.15 M58.93 11.47 C62.6 8.43, 65.35 4.32, 68.77 0.15 M63.91 11.83 C66.23 7.8, 69.56 6.75, 74.41 -0.24 M63.91 11.83 C67.5 9.12, 68.87 4.52, 74.41 -0.24 M69.56 11.44 C73.55 6.9, 76.47 3.63, 79.4 0.12 M69.56 11.44 C73.52 7.55, 77.71 1.63, 79.4 0.12 M82.68 -3.65 C82.68 -3.65, 82.68 -3.65, 82.68 -3.65 M82.68 -3.65 C82.68 -3.65, 82.68 -3.65, 82.68 -3.65 M74.54 11.8 C76.3 9.44, 82.83 3.06, 87.01 -2.54 M74.54 11.8 C77.27 7.9, 80.05 6.48, 87.01 -2.54 M80.19 11.4 C83.43 7.91, 85.83 5.55, 91.34 -1.43 M80.19 11.4 C82.42 7.82, 85.59 6.1, 91.34 -1.43 M80.58 17.05 C85.59 11.7, 88.19 8.29, 96.33 -1.07 M80.58 17.05 C85.05 12.57, 88.97 8.37, 96.33 -1.07 M86.88 15.9 C89.31 13.85, 92.06 8.07, 100.66 0.05 M86.88 15.9 C89.99 12.8, 93.4 8.21, 100.66 0.05 M93.84 13.99 C96.71 9.75, 100.92 3.89, 104.99 1.16 M93.84 13.99 C95.67 11.79, 99.04 8.89, 104.99 1.16 M100.13 12.85 C101.44 10.59, 104.83 9.07, 109.32 2.28 M100.13 12.85 C103.88 9.42, 106.32 5.3, 109.32 2.28 M106.43 11.7 C109.4 8.28, 109.85 7.19, 114.31 2.64 M106.43 11.7 C109.13 7.99, 112.5 4.89, 114.31 2.64 M112.73 10.55 C113.86 9.28, 115.2 7.36, 118.64 3.75 M112.73 10.55 C115.31 7.96, 116.8 5.46, 118.64 3.75 M119.69 8.64 C120.67 8.06, 121.31 7.13, 122.97 4.87 M119.69 8.64 C120.43 7.56, 121.6 6.8, 122.97 4.87 M125.99 7.49 C126.4 6.85, 126.8 6.29, 127.3 5.98 M125.99 7.49 C126.22 7.22, 126.54 6.77, 127.3 5.98 M132.29 6.34 C132.29 6.34, 132.29 6.34, 132.29 6.34 M132.29 6.34 C132.29 6.34, 132.29 6.34, 132.29 6.34" stroke="#e03131" stroke-width="0.5" fill="none"></path><path d="M0 0 C0.78 3.68, 0.74 7.08, 0 11.22 M0 0 C0.45 3.21, 0.59 5.99, 0 11.22 M0 11.22 C27.27 11.78, 56.94 8.58, 80.41 11.22 M0 11.22 C16.53 12, 33.83 11.06, 80.41 11.22 M80.41 11.22 C80.01 12.62, 80.96 14.27, 80.41 16.83 M80.41 11.22 C80.51 12.77, 80.31 13.84, 80.41 16.83 M80.41 16.83 C94.99 14.17, 113.54 9.51, 134.02 5.61 M80.41 16.83 C94.15 15.32, 108.1 11.66, 134.02 5.61 M134.02 5.61 C116.83 3.91, 102.74 -2.16, 80.41 -5.61 M134.02 5.61 C116.85 2.69, 100.28 -1.29, 80.41 -5.61 M80.41 -5.61 C80.1 -4.11, 80.78 -1.72, 80.41 0 M80.41 -5.61 C80.63 -3.68, 80.17 -1.78, 80.41 0 M80.41 0 C62.98 -1.16, 46.68 -1.05, 0 0 M80.41 0 C52.24 1.14, 26.19 1.28, 0 0 M0 0 C0 0, 0 0, 0 0 M0 0 C0 0, 0 0, 0 0" stroke="#e03131" stroke-width="1" fill="none"></path></g></g><mask></mask><g stroke-linecap="round"><g transform="translate(333.82065156380065 430.912859389112) rotate(270.53705012645446 67.00864525910413 5.6116347746552435)" fill-rule="evenodd"><path d="M0 0 C0 0, 0 0, 0 0 M0 0 C0 0, 0 0, 0 0 M-0.26 6.4 C1.23 3.99, 2.71 2.71, 4.99 0.36 M-0.26 6.4 C1.53 4.84, 2.83 3.08, 4.99 0.36 M0.79 11.29 C5.08 7.91, 9.19 3.61, 10.63 -0.03 M0.79 11.29 C2.72 8.56, 5.18 6.2, 10.63 -0.03 M5.78 11.65 C8.47 7.84, 10.92 7.7, 15.62 0.33 M5.78 11.65 C9.88 7.47, 13.66 1.95, 15.62 0.33 M10.76 12.01 C11.86 10.92, 15.19 8.43, 21.26 -0.07 M10.76 12.01 C13.1 8.27, 16.28 6.29, 21.26 -0.07 M16.41 11.61 C20.93 8.34, 23.59 4.73, 26.25 0.29 M16.41 11.61 C18.52 8.1, 21.15 5.87, 26.25 0.29 M21.39 11.97 C27.08 8.32, 30.77 1.41, 31.89 -0.1 M21.39 11.97 C24.25 8.92, 26.77 6.44, 31.89 -0.1 M27.04 11.58 C29.34 6.74, 35.69 1.71, 36.88 0.26 M27.04 11.58 C30.46 7.57, 32.57 5.31, 36.88 0.26 M32.02 11.94 C33.03 8.23, 37.73 6.3, 42.52 -0.14 M32.02 11.94 C34.63 7.98, 38.26 5.1, 42.52 -0.14 M37.67 11.54 C42.48 5.91, 44.96 1.46, 47.51 0.22 M37.67 11.54 C40.49 9.46, 42.66 6.77, 47.51 0.22 M42.65 11.9 C44.28 7.69, 48.71 6.38, 53.15 -0.17 M42.65 11.9 C44.95 9.91, 46.63 6.39, 53.15 -0.17 M48.3 11.51 C51.5 8.37, 54.61 4.7, 58.14 0.19 M48.3 11.51 C51.73 8.58, 54.03 4.67, 58.14 0.19 M53.28 11.87 C54.81 9.8, 59.18 4.76, 63.78 -0.21 M53.28 11.87 C55.77 8.11, 58.93 5.85, 63.78 -0.21 M58.93 11.47 C63.28 8.11, 64.68 4.03, 68.77 0.15 M58.93 11.47 C61.96 8.21, 66.19 4.67, 68.77 0.15 M63.91 11.83 C67.46 6.8, 71.38 1.76, 74.41 -0.24 M63.91 11.83 C67.55 6.73, 72.72 1.94, 74.41 -0.24 M69.56 11.44 C71.5 9.31, 75.12 4.98, 79.4 0.12 M69.56 11.44 C72.68 6.61, 76.48 2.64, 79.4 0.12 M81.37 -2.15 C82.11 -2.87, 82.21 -3.52, 83.33 -4.41 M81.37 -2.15 C81.99 -2.65, 82.53 -3.54, 83.33 -4.41 M74.54 11.8 C79.89 6.02, 81.33 4.49, 87.66 -3.29 M74.54 11.8 C77.59 6.41, 82.97 2.89, 87.66 -3.29 M80.19 11.4 C86.46 5.06, 90.43 1.95, 92.65 -2.93 M80.19 11.4 C85.12 6.94, 87.73 1.79, 92.65 -2.93 M80.58 17.05 C84.23 12.74, 90.74 7.11, 96.98 -1.82 M80.58 17.05 C84.54 11.27, 90.9 6.9, 96.98 -1.82 M86.88 15.9 C90.26 10.83, 93.85 5.86, 101.31 -0.71 M86.88 15.9 C91.26 11.41, 95.9 5.67, 101.31 -0.71 M93.84 13.99 C95.35 10.81, 100.97 8.46, 105.64 0.41 M93.84 13.99 C97.95 8.17, 103.01 2.83, 105.64 0.41 M100.13 12.85 C103.66 6.87, 106.91 2.42, 110.63 0.77 M100.13 12.85 C103.47 8.01, 108.75 3.93, 110.63 0.77 M106.43 11.7 C110.49 9.55, 111.34 4.29, 114.96 1.88 M106.43 11.7 C109.17 7.93, 112.62 4.65, 114.96 1.88 M112.73 10.55 C115.29 6.92, 117.33 4.04, 119.29 3 M112.73 10.55 C115.48 7.27, 117.45 4.63, 119.29 3 M119.69 8.64 C120.72 7.54, 121.87 5.05, 123.62 4.11 M119.69 8.64 C120.76 7.77, 121.55 6.68, 123.62 4.11 M125.99 7.49 C126.49 6.5, 127.38 6.15, 127.96 5.23 M125.99 7.49 C126.5 6.85, 126.78 6.53, 127.96 5.23 M132.29 6.34 C132.48 6.27, 132.63 5.93, 132.94 5.59 M132.29 6.34 C132.57 6.05, 132.8 5.75, 132.94 5.59" stroke="#e03131" stroke-width="0.5" fill="none"></path><path d="M0 0 C-1.02 5.01, -0.75 8.15, 0 11.22 M0 0 C-0.02 3.44, 0.05 5.44, 0 11.22 M0 11.22 C30.62 10.95, 57.58 9.74, 80.41 11.22 M0 11.22 C30.15 11.64, 58.88 11.88, 80.41 11.22 M80.41 11.22 C80.7 12.6, 80.39 14.42, 80.41 16.83 M80.41 11.22 C80.58 13.6, 80.53 15.38, 80.41 16.83 M80.41 16.83 C92.44 15.44, 105.5 13.24, 134.02 5.61 M80.41 16.83 C101.43 11.76, 121.48 7.7, 134.02 5.61 M134.02 5.61 C114.47 0.15, 98.8 -0.13, 80.41 -5.61 M134.02 5.61 C121.63 2.8, 110.24 -0.55, 80.41 -5.61 M80.41 -5.61 C80.63 -4.23, 80.35 -2.31, 80.41 0 M80.41 -5.61 C80.27 -3.77, 80.28 -1.79, 80.41 0 M80.41 0 C52.54 0.73, 23.32 -0.29, 0 0 M80.41 0 C49.39 0.44, 19.68 0.52, 0 0 M0 0 C0 0, 0 0, 0 0 M0 0 C0 0, 0 0, 0 0" stroke="#e03131" stroke-width="1" fill="none"></path></g></g><mask></mask><g transform="translate(427 443.4887553467449) rotate(0 88 9.599999999999994)"><text x="88" y="15.45" font-family="Cascadia, Segoe UI Emoji" font-size="16px" fill="#e03131" text-anchor="middle" style="white-space: pre;" direction="ltr" dominant-baseline="alphabetic">路由匹配和业务逻辑处理</text></g><g transform="translate(1129 266.4887553467449) rotate(0 32 9.599999999999994)"><text x="32" y="15.45" font-family="Cascadia, Segoe UI Emoji" font-size="16px" fill="#e03131" text-anchor="middle" style="white-space: pre;" direction="ltr" dominant-baseline="alphabetic">新建连接</text></g><g stroke-linecap="round"><g transform="translate(1004 233.48875534674488) rotate(0 -19 45)"><path d="M-0.14 -1.08 C-6.61 6.97, -38.09 33.73, -38.24 48.84 C-38.4 63.95, -6.95 82.79, -1.05 89.56 M-1.67 0.97 C-8.37 8.64, -39.38 32.21, -39.32 47.16 C-39.26 62.11, -7.37 83.45, -1.32 90.65" stroke="#1971c2" stroke-width="2" fill="none"></path></g><g transform="translate(1004 233.48875534674488) rotate(0 -19 45)"><path d="M-24.52 81.33 C-18.2 84.2, -6.91 89.43, -1.32 90.65 M-24.52 81.33 C-18.64 84.22, -13.24 86.92, -1.32 90.65" stroke="#1971c2" stroke-width="2" fill="none"></path></g><g transform="translate(1004 233.48875534674488) rotate(0 -19 45)"><path d="M-13.1 68.6 C-10.7 75.89, -3.4 85.56, -1.32 90.65 M-13.1 68.6 C-10.33 74.8, -7.94 80.86, -1.32 90.65" stroke="#1971c2" stroke-width="2" fill="none"></path></g></g><mask></mask><g stroke-linecap="round"><g transform="translate(1015 328.4887553467449) rotate(0 20.5 -47.5)"><path d="M-1.03 -0.46 C5.8 -8.96, 40.17 -35.98, 40.5 -51.69 C40.84 -67.39, 7.36 -87.61, 0.99 -94.66 M0.63 -1.74 C7.31 -10.56, 38.84 -37.8, 39.29 -53.64 C39.75 -69.49, 9.46 -89.77, 3.35 -96.82" stroke="#1971c2" stroke-width="2" fill="none"></path></g><g transform="translate(1015 328.4887553467449) rotate(0 20.5 -47.5)"><path d="M26.55 -87.52 C19.86 -90.95, 15.16 -94.21, 3.35 -96.82 M26.55 -87.52 C18.86 -90.78, 10.7 -92.7, 3.35 -96.82" stroke="#1971c2" stroke-width="2" fill="none"></path></g><g transform="translate(1015 328.4887553467449) rotate(0 20.5 -47.5)"><path d="M15.14 -74.78 C11.47 -81.4, 9.71 -87.94, 3.35 -96.82 M15.14 -74.78 C11.18 -82.32, 6.76 -88.42, 3.35 -96.82" stroke="#1971c2" stroke-width="2" fill="none"></path></g></g><mask></mask><g transform="translate(979 267.4887553467449) rotate(0 32 9.599999999999994)"><text x="32" y="15.45" font-family="Cascadia, Segoe UI Emoji" font-size="16px" fill="#1971c2" text-anchor="middle" style="white-space: pre;" direction="ltr" dominant-baseline="alphabetic">循环监听</text></g></svg>