<svg viewBox="0 0 1132 804" xmlns:xlink="http://www.w3.org/1999/xlink" xmlns:ev="http://www.w3.org/2001/xml-events" xmlns="http://www.w3.org/2000/svg" width="1132" height="804"><defs/><g id="page1" transform="translate(5.5,5.5)"><rect y="0" x="0" width="1123" height="794" fill="none"/><g id="shape1" transform="translate(347.846544,144.822164)"><path stroke-width="1" fill-rule="nonzero" stroke="#101843" fill="#cbcbcb" d="M335.0,43.8L335.0,.0L.0,.0L.0,43.8L335.0,43.8z"/><text xml:space="preserve" style="fill:#191919;font-family:微软雅黑,PingFang SC,Mircrosoft YaHei,Arial;font-size:10.00pt;font-weight:bold"><tspan style="font-family:微软雅黑,PingFang SC,Mircrosoft YaHei,Arial" y="27.4" x="149.5">事务A</tspan></text></g><g id="shape2" transform="translate(682.853580,144.822164)"><path stroke-width="1" fill-rule="nonzero" stroke="#101843" fill="#cbcbcb" d="M335.0,43.8L335.0,.0L.0,.0L.0,43.8L335.0,43.8z"/><text xml:space="preserve" style="fill:#191919;font-family:微软雅黑,PingFang SC,Mircrosoft YaHei,Arial;font-size:10.00pt;font-weight:bold"><tspan style="font-family:微软雅黑,PingFang SC,Mircrosoft YaHei,Arial" y="27.4" x="150.0">事务B</tspan></text></g><g id="shape3" transform="translate(347.846544,188.581122)"><path stroke-width="1" fill-rule="nonzero" stroke="#101843" fill="#ffffff" d="M335.0,73.8L335.0,.0L.0,.0L.0,73.8L335.0,73.8z"/><text xml:space="preserve" style="fill:#191919;font-family:微软雅黑,PingFang SC,Mircrosoft YaHei,Arial;font-size:10.00pt;font-weight:bold"><tspan style="font-family:微软雅黑,PingFang SC,Mircrosoft YaHei,Arial" y="32.9" x="141.5">开启事务</tspan><tspan style="font-family:微软雅黑,PingFang SC,Mircrosoft YaHei,Arial" y="51.9" x="123.0">查询结果 c = 1</tspan></text></g><g id="shape4" transform="translate(682.853580,188.581122)"><path stroke-width="1" fill-rule="nonzero" stroke="#101843" fill="#ffffff" d="M335.0,73.8L335.0,.0L.0,.0L.0,73.8L335.0,73.8z"/><text xml:space="preserve" style="fill:#191919;font-family:微软雅黑,PingFang SC,Mircrosoft YaHei,Arial;font-size:10.00pt;font-weight:bold"><tspan style="font-family:微软雅黑,PingFang SC,Mircrosoft YaHei,Arial" y="42.4" x="141.5">开启事务</tspan></text></g><g id="shape5" transform="translate(682.853580,262.424362)"><path stroke-width="1" fill-rule="nonzero" stroke="#101843" fill="#ffffff" d="M335.0,43.8L335.0,.0L.0,.0L.0,43.8L335.0,43.8z"/><text xml:space="preserve" style="fill:#191919;font-family:微软雅黑,PingFang SC,Mircrosoft YaHei,Arial;font-size:10.00pt;font-weight:bold"><tspan style="font-family:微软雅黑,PingFang SC,Mircrosoft YaHei,Arial" y="27.4" x="123.0">查询结果 c = 1</tspan></text></g><path stroke-width="1" fill-rule="nonzero" id="shape6" stroke="#101843" transform="translate(347.846544,262.424362)" fill="#ffffff" d="M335.0,43.8L335.0,.0L.0,.0L.0,43.8L335.0,43.8z"/><g id="shape7" transform="translate(682.853580,306.183320)"><path stroke-width="1" fill-rule="nonzero" stroke="#101843" fill="#ffffff" d="M335.0,43.8L335.0,.0L.0,.0L.0,43.8L335.0,43.8z"/><text xml:space="preserve" style="fill:#191919;font-family:微软雅黑,PingFang SC,Mircrosoft YaHei,Arial;font-size:10.00pt;font-weight:bold"><tspan style="font-family:微软雅黑,PingFang SC,Mircrosoft YaHei,Arial" y="27.4" x="124.5">更新 set c = 2</tspan></text></g><path stroke-width="1" fill-rule="nonzero" id="shape8" stroke="#101843" transform="translate(347.846544,306.183320)" fill="#ffffff" d="M335.0,43.8L335.0,.0L.0,.0L.0,43.8L335.0,43.8z"/><g id="shape9" transform="translate(347.846544,349.942277)"><path stroke-width="1" fill-rule="nonzero" stroke="#101843" fill="#83ebdc" d="M335.0,43.8L335.0,.0L.0,.0L.0,43.8L335.0,43.8z"/><text xml:space="preserve" style="fill:#191919;font-family:微软雅黑,PingFang SC,Mircrosoft YaHei,Arial;font-size:10.00pt;font-weight:bold"><tspan style="font-family:微软雅黑,PingFang SC,Mircrosoft YaHei,Arial" y="27.4" x="116.5">查询c得到结果V1</tspan></text></g><path stroke-width="1" fill-rule="nonzero" id="shape10" stroke="#101843" transform="translate(682.853580,349.942277)" fill="#ffffff" d="M335.0,43.8L335.0,.0L.0,.0L.0,43.8L335.0,43.8z"/><path stroke-width="1" fill-rule="nonzero" id="shape11" stroke="#101843" transform="translate(347.846544,393.701234)" fill="#ffffff" d="M335.0,43.8L335.0,.0L.0,.0L.0,43.8L335.0,43.8z"/><g id="shape12" transform="translate(682.853580,393.701234)"><path stroke-width="1" fill-rule="nonzero" stroke="#101843" fill="#e7e7e7" d="M335.0,43.8L335.0,.0L.0,.0L.0,43.8L335.0,43.8z"/><text xml:space="preserve" style="fill:#191919;font-family:微软雅黑,PingFang SC,Mircrosoft YaHei,Arial;font-size:10.00pt;font-weight:bold"><tspan style="font-family:微软雅黑,PingFang SC,Mircrosoft YaHei,Arial" y="27.4" x="137.0">提交事务B</tspan></text></g><g id="shape13" transform="translate(347.846544,437.460192)"><path stroke-width="1" fill-rule="nonzero" stroke="#101843" fill="#83ebdc" d="M335.0,43.8L335.0,.0L.0,.0L.0,43.8L335.0,43.8z"/><text xml:space="preserve" style="fill:#191919;font-family:微软雅黑,PingFang SC,Mircrosoft YaHei,Arial;font-size:10.00pt;font-weight:bold"><tspan style="font-family:微软雅黑,PingFang SC,Mircrosoft YaHei,Arial" y="27.4" x="116.5">查询c得到结果V2</tspan></text></g><path stroke-width="1" fill-rule="nonzero" id="shape14" stroke="#101843" transform="translate(682.853580,437.460192)" fill="#ffffff" d="M335.0,43.8L335.0,.0L.0,.0L.0,43.8L335.0,43.8z"/><g id="shape15" transform="translate(347.846544,481.219149)"><path stroke-width="1" fill-rule="nonzero" stroke="#101843" fill="#e7e7e7" d="M335.0,43.8L335.0,.0L.0,.0L.0,43.8L335.0,43.8z"/><text xml:space="preserve" style="fill:#191919;font-family:微软雅黑,PingFang SC,Mircrosoft YaHei,Arial;font-size:10.00pt;font-weight:bold"><tspan style="font-family:微软雅黑,PingFang SC,Mircrosoft YaHei,Arial" y="27.4" x="136.5">提交事务A</tspan></text></g><path stroke-width="1" fill-rule="nonzero" id="shape16" stroke="#101843" transform="translate(682.853580,481.219149)" fill="#ffffff" d="M335.0,43.8L335.0,.0L.0,.0L.0,43.8L335.0,43.8z"/><g id="shape17" transform="translate(347.846649,523.544711)"><path stroke-width="1" fill-rule="nonzero" stroke="#101843" fill="#83ebdc" d="M335.0,43.8L335.0,.0L.0,.0L.0,43.8L335.0,43.8z"/><text xml:space="preserve" style="fill:#191919;font-family:微软雅黑,PingFang SC,Mircrosoft YaHei,Arial;font-size:10.00pt;font-weight:bold"><tspan style="font-family:微软雅黑,PingFang SC,Mircrosoft YaHei,Arial" y="27.4" x="116.5">查询c得到结果V3</tspan></text></g><path stroke-width="1" fill-rule="nonzero" id="shape18" stroke="#101843" transform="translate(682.853257,523.544711)" fill="#ffffff" d="M335.0,43.8L335.0,.0L.0,.0L.0,43.8L335.0,43.8z"/></g></svg>