<svg viewBox="0 0 1132 804" xmlns:xlink="http://www.w3.org/1999/xlink" xmlns:ev="http://www.w3.org/2001/xml-events" xmlns="http://www.w3.org/2000/svg" width="1132" height="804"><defs/><g id="page1" transform="translate(5.5,5.5)"><rect y="0" x="0" width="1123" height="794" fill="none"/><g id="shape1" transform="translate(337.000000,138.000000)"><path stroke-width="1" fill-rule="nonzero" stroke="#101843" fill="#cbcbcb" d="M183.0,32.0L183.0,.0L.0,.0L.0,32.0L183.0,32.0z"/><text xml:space="preserve" style="fill:#191919;font-family:微软雅黑,PingFang SC,Mircrosoft YaHei,Arial;font-size:10.00pt;font-weight:bold"><tspan style="font-family:微软雅黑,PingFang SC,Mircrosoft YaHei,Arial" y="21.5" x="73.5">事务A</tspan></text></g><g id="shape2" transform="translate(520.000000,138.000000)"><path stroke-width="1" fill-rule="nonzero" stroke="#101843" fill="#cbcbcb" d="M183.0,32.0L183.0,.0L.0,.0L.0,32.0L183.0,32.0z"/><text xml:space="preserve" style="fill:#191919;font-family:微软雅黑,PingFang SC,Mircrosoft YaHei,Arial;font-size:10.00pt;font-weight:bold"><tspan style="font-family:微软雅黑,PingFang SC,Mircrosoft YaHei,Arial" y="21.5" x="74.0">事务B</tspan></text></g><g id="shape3" transform="translate(337.000000,170.000000)"><path stroke-width="1" fill-rule="nonzero" stroke="#101843" fill="#ffffff" d="M183.0,54.0L183.0,.0L.0,.0L.0,54.0L183.0,54.0z"/><text xml:space="preserve" style="fill:#191919;font-family:微软雅黑,PingFang SC,Mircrosoft YaHei,Arial;font-size:10.00pt;font-weight:bold"><tspan style="font-family:微软雅黑,PingFang SC,Mircrosoft YaHei,Arial" y="23.0" x="65.5">开启事务</tspan><tspan style="font-family:微软雅黑,PingFang SC,Mircrosoft YaHei,Arial" y="42.0" x="47.0">查询结果 c = 1</tspan></text></g><g id="shape4" transform="translate(520.000000,170.000000)"><path stroke-width="1" fill-rule="nonzero" stroke="#101843" fill="#ffffff" d="M183.0,54.0L183.0,.0L.0,.0L.0,54.0L183.0,54.0z"/><text xml:space="preserve" style="fill:#191919;font-family:微软雅黑,PingFang SC,Mircrosoft YaHei,Arial;font-size:10.00pt;font-weight:bold"><tspan style="font-family:微软雅黑,PingFang SC,Mircrosoft YaHei,Arial" y="32.5" x="65.5">开启事务</tspan></text></g><g id="shape5" transform="translate(520.000000,224.000000)"><path stroke-width="1" fill-rule="nonzero" stroke="#101843" fill="#ffffff" d="M183.0,32.0L183.0,.0L.0,.0L.0,32.0L183.0,32.0z"/><text xml:space="preserve" style="fill:#191919;font-family:微软雅黑,PingFang SC,Mircrosoft YaHei,Arial;font-size:10.00pt;font-weight:bold"><tspan style="font-family:微软雅黑,PingFang SC,Mircrosoft YaHei,Arial" y="21.5" x="47.0">查询结果 c = 1</tspan></text></g><path stroke-width="1" fill-rule="nonzero" id="shape6" stroke="#101843" transform="translate(337.000000,224.000000)" fill="#ffffff" d="M183.0,32.0L183.0,.0L.0,.0L.0,32.0L183.0,32.0z"/><g id="shape7" transform="translate(520.000000,256.000000)"><path stroke-width="1" fill-rule="nonzero" stroke="#101843" fill="#ffffff" d="M183.0,32.0L183.0,.0L.0,.0L.0,32.0L183.0,32.0z"/><text xml:space="preserve" style="fill:#191919;font-family:微软雅黑,PingFang SC,Mircrosoft YaHei,Arial;font-size:10.00pt;font-weight:bold"><tspan style="font-family:微软雅黑,PingFang SC,Mircrosoft YaHei,Arial" y="21.5" x="48.5">更新 set c = 2</tspan></text></g><path stroke-width="1" fill-rule="nonzero" id="shape8" stroke="#101843" transform="translate(337.000000,256.000000)" fill="#ffffff" d="M183.0,32.0L183.0,.0L.0,.0L.0,32.0L183.0,32.0z"/><g id="shape9" transform="translate(337.000000,288.000000)"><path stroke-width="1" fill-rule="nonzero" stroke="#101843" fill="#83ebdc" d="M183.0,32.0L183.0,.0L.0,.0L.0,32.0L183.0,32.0z"/><text xml:space="preserve" style="fill:#191919;font-family:微软雅黑,PingFang SC,Mircrosoft YaHei,Arial;font-size:10.00pt;font-weight:bold"><tspan style="font-family:微软雅黑,PingFang SC,Mircrosoft YaHei,Arial" y="21.5" x="40.5">查询c得到结果V1</tspan></text></g><path stroke-width="1" fill-rule="nonzero" id="shape10" stroke="#101843" transform="translate(520.000000,288.000000)" fill="#ffffff" d="M183.0,32.0L183.0,.0L.0,.0L.0,32.0L183.0,32.0z"/><path stroke-width="1" fill-rule="nonzero" id="shape11" stroke="#101843" transform="translate(337.000000,320.000000)" fill="#ffffff" d="M183.0,32.0L183.0,.0L.0,.0L.0,32.0L183.0,32.0z"/><g id="shape12" transform="translate(520.000000,320.000000)"><path stroke-width="1" fill-rule="nonzero" stroke="#101843" fill="#e7e7e7" d="M183.0,32.0L183.0,.0L.0,.0L.0,32.0L183.0,32.0z"/><text xml:space="preserve" style="fill:#191919;font-family:微软雅黑,PingFang SC,Mircrosoft YaHei,Arial;font-size:10.00pt;font-weight:bold"><tspan style="font-family:微软雅黑,PingFang SC,Mircrosoft YaHei,Arial" y="21.5" x="61.0">提交事务B</tspan></text></g><g id="shape13" transform="translate(337.000000,352.000000)"><path stroke-width="1" fill-rule="nonzero" stroke="#101843" fill="#83ebdc" d="M183.0,32.0L183.0,.0L.0,.0L.0,32.0L183.0,32.0z"/><text xml:space="preserve" style="fill:#191919;font-family:微软雅黑,PingFang SC,Mircrosoft YaHei,Arial;font-size:10.00pt;font-weight:bold"><tspan style="font-family:微软雅黑,PingFang SC,Mircrosoft YaHei,Arial" y="21.5" x="40.5">查询c得到结果V2</tspan></text></g><path stroke-width="1" fill-rule="nonzero" id="shape14" stroke="#101843" transform="translate(520.000000,352.000000)" fill="#ffffff" d="M183.0,32.0L183.0,.0L.0,.0L.0,32.0L183.0,32.0z"/><g id="shape15" transform="translate(337.000000,384.000000)"><path stroke-width="1" fill-rule="nonzero" stroke="#101843" fill="#e7e7e7" d="M183.0,32.0L183.0,.0L.0,.0L.0,32.0L183.0,32.0z"/><text xml:space="preserve" style="fill:#191919;font-family:微软雅黑,PingFang SC,Mircrosoft YaHei,Arial;font-size:10.00pt;font-weight:bold"><tspan style="font-family:微软雅黑,PingFang SC,Mircrosoft YaHei,Arial" y="21.5" x="60.5">提交事务A</tspan></text></g><path stroke-width="1" fill-rule="nonzero" id="shape16" stroke="#101843" transform="translate(520.000000,384.000000)" fill="#ffffff" d="M183.0,32.0L183.0,.0L.0,.0L.0,32.0L183.0,32.0z"/><g id="shape17" transform="translate(337.350752,416.000000)"><path stroke-width="1" fill-rule="nonzero" stroke="#101843" fill="#83ebdc" d="M183.0,32.0L183.0,.0L.0,.0L.0,32.0L183.0,32.0z"/><text xml:space="preserve" style="fill:#191919;font-family:微软雅黑,PingFang SC,Mircrosoft YaHei,Arial;font-size:10.00pt;font-weight:bold"><tspan style="font-family:微软雅黑,PingFang SC,Mircrosoft YaHei,Arial" y="21.5" x="40.5">查询c得到结果V3</tspan></text></g><path stroke-width="1" fill-rule="nonzero" id="shape18" stroke="#101843" transform="translate(520.350752,416.000000)" fill="#ffffff" d="M183.0,32.0L183.0,.0L.0,.0L.0,32.0L183.0,32.0z"/></g></svg>