<svg viewBox="0 0 1132 804" xmlns:xlink="http://www.w3.org/1999/xlink" xmlns:ev="http://www.w3.org/2001/xml-events" xmlns="http://www.w3.org/2000/svg" width="1132" height="804"><defs/><g id="page1" transform="translate(5.5,5.5)"><rect y="0" x="0" width="1123" height="794" fill="none"/><g id="shape1" transform="translate(145.000000,227.000000)"><path stroke-width="1" fill-rule="nonzero" stroke="#101843" fill="#62bc85" d="M94.0,47.0C94.0,73.0,73.0,94.0,47.0,94.0C21.0,94.0,-0.0,73.0,-0.0,47.0L-0.0,47.0C-0.0,21.0,21.0,-0.0,47.0,-0.0C73.0,-0.0,94.0,21.0,94.0,47.0zM83.1,47.0C83.1,66.9,66.9,83.1,47.0,83.1C27.1,83.1,10.9,66.9,10.9,47.0L10.9,47.0C10.9,27.1,27.1,10.9,47.0,10.9C66.9,10.9,83.1,27.1,83.1,47.0zM47.0,47.0zM47.0,47.0zM47.0,47.0zM47.0,47.0z"/><text xml:space="preserve" style="fill:#191919;font-family:微软雅黑,PingFang SC,Mircrosoft YaHei,Arial;font-size:16.00pt"><tspan style="font-family:微软雅黑,PingFang SC,Mircrosoft YaHei,Arial" y="55.0" x="39.5">A</tspan></text></g><g id="shape2" transform="translate(369.000000,227.000000)"><path stroke-width="1" fill-rule="nonzero" stroke="#101843" fill="#90d6ab" d="M94.0,47.0C94.0,73.0,73.0,94.0,47.0,94.0C21.0,94.0,-0.0,73.0,-0.0,47.0L-0.0,47.0C-0.0,21.0,21.0,-0.0,47.0,-0.0C73.0,-0.0,94.0,21.0,94.0,47.0zM83.1,47.0C83.1,66.9,66.9,83.1,47.0,83.1C27.1,83.1,10.9,66.9,10.9,47.0L10.9,47.0C10.9,27.1,27.1,10.9,47.0,10.9C66.9,10.9,83.1,27.1,83.1,47.0zM47.0,47.0zM47.0,47.0zM47.0,47.0zM47.0,47.0z"/><text xml:space="preserve" style="fill:#191919;font-family:微软雅黑,PingFang SC,Mircrosoft YaHei,Arial;font-size:16.00pt"><tspan style="font-family:微软雅黑,PingFang SC,Mircrosoft YaHei,Arial" y="55.0" x="40.5">B</tspan></text></g><g id="shape3" transform="translate(577.000000,227.000000)"><path stroke-width="1" fill-rule="nonzero" stroke="#101843" fill="#90d6ab" d="M94.0,47.0C94.0,73.0,73.0,94.0,47.0,94.0C21.0,94.0,-0.0,73.0,-0.0,47.0L-0.0,47.0C-0.0,21.0,21.0,-0.0,47.0,-0.0C73.0,-0.0,94.0,21.0,94.0,47.0zM83.1,47.0C83.1,66.9,66.9,83.1,47.0,83.1C27.1,83.1,10.9,66.9,10.9,47.0L10.9,47.0C10.9,27.1,27.1,10.9,47.0,10.9C66.9,10.9,83.1,27.1,83.1,47.0zM47.0,47.0zM47.0,47.0zM47.0,47.0zM47.0,47.0z"/><text xml:space="preserve" style="fill:#191919;font-family:微软雅黑,PingFang SC,Mircrosoft YaHei,Arial;font-size:16.00pt"><tspan style="font-family:微软雅黑,PingFang SC,Mircrosoft YaHei,Arial" y="55.0" x="40.0">C</tspan></text></g><g id="shape4" transform="translate(577.000000,416.000000)"><path stroke-width="1" fill-rule="nonzero" stroke="#101843" fill="#e7e7e7" d="M94.0,47.0C94.0,73.0,73.0,94.0,47.0,94.0C21.0,94.0,-0.0,73.0,-0.0,47.0L-0.0,47.0C-0.0,21.0,21.0,-0.0,47.0,-0.0C73.0,-0.0,94.0,21.0,94.0,47.0zM83.1,47.0C83.1,66.9,66.9,83.1,47.0,83.1C27.1,83.1,10.9,66.9,10.9,47.0L10.9,47.0C10.9,27.1,27.1,10.9,47.0,10.9C66.9,10.9,83.1,27.1,83.1,47.0zM47.0,47.0zM47.0,47.0zM47.0,47.0zM47.0,47.0z"/><text xml:space="preserve" style="fill:#191919;font-family:微软雅黑,PingFang SC,Mircrosoft YaHei,Arial;font-size:16.00pt"><tspan style="font-family:微软雅黑,PingFang SC,Mircrosoft YaHei,Arial" y="55.0" x="39.0">D</tspan></text></g><g id="shape5" transform="translate(239.000000,274.000000)"><path stroke-width="1" stroke="#191919" d="M.0,.0L123.0,.0" fill="none"/><path stroke-width="1" stroke-linecap="round" stroke="#191919" fill="#191919" d="M123.0,-3.0L129.0,.0L123.0,3.0L123.0,-3.0"/><rect y="-9.5" x="46.3" width="26.0" height="19.0" fill="#ffffff"/><text xml:space="preserve" style="fill:#191919;font-family:微软雅黑,PingFang SC,Mircrosoft YaHei,Arial;font-size:10.00pt"><tspan style="font-family:微软雅黑,PingFang SC,Mircrosoft YaHei,Arial" y="5.5" x="46.3">调用</tspan></text></g><g id="shape6" transform="translate(463.000000,274.000000)"><path stroke-width="1" stroke="#191919" d="M.0,.0L107.0,.0" fill="none"/><path stroke-width="1" stroke-linecap="round" stroke="#191919" fill="#191919" d="M107.0,-3.0L113.0,.0L107.0,3.0L107.0,-3.0"/><rect y="-9.5" x="41.3" width="26.0" height="19.0" fill="#ffffff"/><text xml:space="preserve" style="fill:#191919;font-family:微软雅黑,PingFang SC,Mircrosoft YaHei,Arial;font-size:10.00pt"><tspan style="font-family:微软雅黑,PingFang SC,Mircrosoft YaHei,Arial" y="5.5" x="41.3">调用</tspan></text></g><g id="shape7" transform="translate(416.000000,321.000000)"><path stroke-width="1" stroke="#191919" d="M.0,.0L.0,141.0L155.0,141.0" fill="none"/><path stroke-width="1" stroke-linecap="round" stroke="#191919" fill="#191919" d="M155.0,138.0L161.0,141.0L155.0,144.0L155.0,138.0"/><rect y="76.4" x="-12.0" width="26.0" height="19.0" fill="#ffffff"/><text xml:space="preserve" style="fill:#191919;font-family:微软雅黑,PingFang SC,Mircrosoft YaHei,Arial;font-size:10.00pt"><tspan style="font-family:微软雅黑,PingFang SC,Mircrosoft YaHei,Arial" y="91.4" x="-12.0">调用</tspan></text></g><g id="shape8" transform="translate(113.000000,163.316929)"><text xml:space="preserve" style="fill:#191919;font-family:微软雅黑,PingFang SC,Mircrosoft YaHei,Arial;font-size:10.00pt"><tspan style="font-family:微软雅黑,PingFang SC,Mircrosoft YaHei,Arial" y="47.0" x="26.9">如何控制他们退出呢？</tspan></text></g></g></svg>