<svg viewBox="0 0 1132 804" xmlns:xlink="http://www.w3.org/1999/xlink" xmlns:ev="http://www.w3.org/2001/xml-events" xmlns="http://www.w3.org/2000/svg" width="1132" height="804"><defs/><g id="page1" transform="translate(5.5,5.5)"><rect y="0" x="0" width="1123" height="794" fill="none"/><g id="shape1" transform="translate(344.707160,141.682781)"><path stroke-width="1" fill-rule="nonzero" stroke="#101843" fill="#cbcbcb" d="M277.0,36.2L277.0,.0L.0,.0L.0,36.2L277.0,36.2z"/><text xml:space="preserve" style="fill:#191919;font-family:微软雅黑,PingFang SC,Mircrosoft YaHei,Arial;font-size:10.00pt;font-weight:bold"><tspan style="font-family:微软雅黑,PingFang SC,Mircrosoft YaHei,Arial" y="23.6" x="120.5">事务A</tspan></text></g><g id="shape2" transform="translate(621.734514,141.682781)"><path stroke-width="1" fill-rule="nonzero" stroke="#101843" fill="#cbcbcb" d="M277.0,36.2L277.0,.0L.0,.0L.0,36.2L277.0,36.2z"/><text xml:space="preserve" style="fill:#191919;font-family:微软雅黑,PingFang SC,Mircrosoft YaHei,Arial;font-size:10.00pt;font-weight:bold"><tspan style="font-family:微软雅黑,PingFang SC,Mircrosoft YaHei,Arial" y="23.6" x="121.0">事务B</tspan></text></g><g id="shape3" transform="translate(344.707160,177.868373)"><path stroke-width="1" fill-rule="nonzero" stroke="#101843" fill="#ffffff" d="M277.0,61.1L277.0,.0L.0,.0L.0,61.1L277.0,61.1z"/><text xml:space="preserve" style="fill:#191919;font-family:微软雅黑,PingFang SC,Mircrosoft YaHei,Arial;font-size:10.00pt;font-weight:bold"><tspan style="font-family:微软雅黑,PingFang SC,Mircrosoft YaHei,Arial" y="26.5" x="112.5">开启事务</tspan><tspan style="font-family:微软雅黑,PingFang SC,Mircrosoft YaHei,Arial" y="45.5" x="94.0">查询结果 c = 1</tspan></text></g><g id="shape4" transform="translate(621.734514,177.868373)"><path stroke-width="1" fill-rule="nonzero" stroke="#101843" fill="#ffffff" d="M277.0,61.1L277.0,.0L.0,.0L.0,61.1L277.0,61.1z"/><text xml:space="preserve" style="fill:#191919;font-family:微软雅黑,PingFang SC,Mircrosoft YaHei,Arial;font-size:10.00pt;font-weight:bold"><tspan style="font-family:微软雅黑,PingFang SC,Mircrosoft YaHei,Arial" y="36.0" x="112.5">开启事务</tspan></text></g><g id="shape5" transform="translate(621.734514,238.931561)"><path stroke-width="1" fill-rule="nonzero" stroke="#101843" fill="#ffffff" d="M277.0,36.2L277.0,.0L.0,.0L.0,36.2L277.0,36.2z"/><text xml:space="preserve" style="fill:#191919;font-family:微软雅黑,PingFang SC,Mircrosoft YaHei,Arial;font-size:10.00pt;font-weight:bold"><tspan style="font-family:微软雅黑,PingFang SC,Mircrosoft YaHei,Arial" y="23.6" x="94.0">查询结果 c = 1</tspan></text></g><path stroke-width="1" fill-rule="nonzero" id="shape6" stroke="#101843" transform="translate(344.707160,238.931561)" fill="#ffffff" d="M277.0,36.2L277.0,.0L.0,.0L.0,36.2L277.0,36.2z"/><g id="shape7" transform="translate(621.734514,275.117154)"><path stroke-width="1" fill-rule="nonzero" stroke="#101843" fill="#ffffff" d="M277.0,36.2L277.0,.0L.0,.0L.0,36.2L277.0,36.2z"/><text xml:space="preserve" style="fill:#191919;font-family:微软雅黑,PingFang SC,Mircrosoft YaHei,Arial;font-size:10.00pt;font-weight:bold"><tspan style="font-family:微软雅黑,PingFang SC,Mircrosoft YaHei,Arial" y="23.6" x="95.5">更新 set c = 2</tspan></text></g><path stroke-width="1" fill-rule="nonzero" id="shape8" stroke="#101843" transform="translate(344.707160,275.117154)" fill="#ffffff" d="M277.0,36.2L277.0,.0L.0,.0L.0,36.2L277.0,36.2z"/><g id="shape9" transform="translate(344.707160,311.302746)"><path stroke-width="1" fill-rule="nonzero" stroke="#101843" fill="#83ebdc" d="M277.0,36.2L277.0,.0L.0,.0L.0,36.2L277.0,36.2z"/><text xml:space="preserve" style="fill:#191919;font-family:微软雅黑,PingFang SC,Mircrosoft YaHei,Arial;font-size:10.00pt;font-weight:bold"><tspan style="font-family:微软雅黑,PingFang SC,Mircrosoft YaHei,Arial" y="23.6" x="87.5">查询c得到结果V1</tspan></text></g><path stroke-width="1" fill-rule="nonzero" id="shape10" stroke="#101843" transform="translate(621.734514,311.302746)" fill="#ffffff" d="M277.0,36.2L277.0,.0L.0,.0L.0,36.2L277.0,36.2z"/><path stroke-width="1" fill-rule="nonzero" id="shape11" stroke="#101843" transform="translate(344.707160,347.488339)" fill="#ffffff" d="M277.0,36.2L277.0,.0L.0,.0L.0,36.2L277.0,36.2z"/><g id="shape12" transform="translate(621.734514,347.488339)"><path stroke-width="1" fill-rule="nonzero" stroke="#101843" fill="#e7e7e7" d="M277.0,36.2L277.0,.0L.0,.0L.0,36.2L277.0,36.2z"/><text xml:space="preserve" style="fill:#191919;font-family:微软雅黑,PingFang SC,Mircrosoft YaHei,Arial;font-size:10.00pt;font-weight:bold"><tspan style="font-family:微软雅黑,PingFang SC,Mircrosoft YaHei,Arial" y="23.6" x="108.0">提交事务B</tspan></text></g><g id="shape13" transform="translate(344.707160,383.673932)"><path stroke-width="1" fill-rule="nonzero" stroke="#101843" fill="#83ebdc" d="M277.0,36.2L277.0,.0L.0,.0L.0,36.2L277.0,36.2z"/><text xml:space="preserve" style="fill:#191919;font-family:微软雅黑,PingFang SC,Mircrosoft YaHei,Arial;font-size:10.00pt;font-weight:bold"><tspan style="font-family:微软雅黑,PingFang SC,Mircrosoft YaHei,Arial" y="23.6" x="87.5">查询c得到结果V2</tspan></text></g><path stroke-width="1" fill-rule="nonzero" id="shape14" stroke="#101843" transform="translate(621.734514,383.673932)" fill="#ffffff" d="M277.0,36.2L277.0,.0L.0,.0L.0,36.2L277.0,36.2z"/><g id="shape15" transform="translate(344.707160,419.859525)"><path stroke-width="1" fill-rule="nonzero" stroke="#101843" fill="#e7e7e7" d="M277.0,36.2L277.0,.0L.0,.0L.0,36.2L277.0,36.2z"/><text xml:space="preserve" style="fill:#191919;font-family:微软雅黑,PingFang SC,Mircrosoft YaHei,Arial;font-size:10.00pt;font-weight:bold"><tspan style="font-family:微软雅黑,PingFang SC,Mircrosoft YaHei,Arial" y="23.6" x="107.5">提交事务A</tspan></text></g><path stroke-width="1" fill-rule="nonzero" id="shape16" stroke="#101843" transform="translate(621.734514,419.859525)" fill="#ffffff" d="M277.0,36.2L277.0,.0L.0,.0L.0,36.2L277.0,36.2z"/><g id="shape17" transform="translate(346.238132,456.045117)"><path stroke-width="1" fill-rule="nonzero" stroke="#101843" fill="#83ebdc" d="M277.0,36.2L277.0,.0L.0,.0L.0,36.2L277.0,36.2z"/><text xml:space="preserve" style="fill:#191919;font-family:微软雅黑,PingFang SC,Mircrosoft YaHei,Arial;font-size:10.00pt;font-weight:bold"><tspan style="font-family:微软雅黑,PingFang SC,Mircrosoft YaHei,Arial" y="23.6" x="87.5">查询c得到结果V3</tspan></text></g><path stroke-width="1" fill-rule="nonzero" id="shape18" stroke="#101843" transform="translate(622.265486,456.045117)" fill="#ffffff" d="M277.0,36.2L277.0,.0L.0,.0L.0,36.2L277.0,36.2z"/></g></svg>